<svg width="1057" height="1053" viewBox="0 0 1057 1053" fill="none" xmlns="http://www.w3.org/2000/svg">
<path d="M973.522 73.0179C1021.51 88.4982 1055.44 134.924 1056.31 184.085C1056.38 187.81 1056.27 191.549 1055.94 195.289L1008.2 752.877C1007.13 765.313 1000.66 775.494 991.225 781.337C984.749 785.352 948.363 808.487 948.363 808.487L374.192 734.781C353.365 732.964 335.616 715.368 333.066 694.011L265.204 126.134C264.754 122.317 264.493 118.547 264.427 114.822C264.027 92.4066 265.421 53.7288 265.421 53.7288C265.421 53.7288 304.074 31.7193 319.018 25.0137C326.532 21.6418 334.655 19.22 343.279 17.9019L369.909 13.8326C463.151 -0.421509 558.755 -3.84698 654.92 4.42957C754.07 13.1506 849.435 32.9684 942.853 63.1166L973.522 73.0179Z" fill="#152E37"/>
<path d="M930.14 98.4156C978.129 113.896 1012.05 160.324 1012.93 209.484C1013 213.208 1012.88 216.947 1012.57 220.693L964.818 778.272C963.016 799.25 945.838 813.802 925.027 811.984L330.81 760.176C309.983 758.364 292.235 740.769 289.684 719.412L221.822 151.532C221.371 147.719 221.111 143.95 221.044 140.226C220.168 91.1483 252.428 50.5617 299.896 43.3018L326.527 39.2326C419.77 24.9755 515.373 21.552 611.536 29.8254C710.69 38.5494 806.053 58.3696 899.471 88.5205L930.14 98.4156Z" fill="white"/>
<path d="M508.547 26.6849C447.719 26.6849 386.886 31.2915 326.721 40.4897L300.09 44.5629C253.423 51.702 221.443 91.0273 222.322 140.197C222.387 143.849 222.645 147.607 223.09 151.379L290.953 719.256C293.439 740.09 310.622 757.133 330.921 758.905L925.134 810.712C934.813 811.558 944.041 808.74 951.128 802.786C958.289 796.764 962.701 788.021 963.55 778.162L1011.29 220.584C1011.61 216.969 1011.73 213.242 1011.65 209.507C1010.77 160.089 977.092 114.902 929.748 99.6317L899.087 89.7347C803.528 58.8937 709.434 39.7156 611.425 31.0961C577.225 28.1578 542.886 26.6849 508.547 26.6849ZM928.493 813.416C927.306 813.416 926.111 813.364 924.908 813.255L330.699 761.447C309.222 759.577 291.044 741.568 288.417 719.561L220.554 151.68C220.098 147.825 219.835 143.977 219.768 140.242C219.336 116.104 227.001 93.0337 241.348 75.2761C255.804 57.3907 276.529 45.5849 299.704 42.0378L326.335 37.9647C420.662 23.5437 516.651 20.38 611.643 28.5562C709.848 37.1907 804.122 56.4062 899.869 87.2999L930.53 97.197C953.893 104.734 975.093 120.132 990.228 140.558C1005.26 160.841 1013.78 185.316 1014.21 209.462C1014.28 213.287 1014.15 217.097 1013.84 220.794L966.09 778.38C965.188 788.919 960.454 798.283 952.766 804.742C946.04 810.396 937.533 813.416 928.493 813.416Z" fill="black"/>
<path d="M415.343 92.6992C405.157 93.7706 396.413 98.886 389.746 106.889C388.798 108.031 387.889 109.23 387.021 110.486C384.426 114.254 382.237 118.525 380.528 123.179C377.681 130.941 376.168 139.788 376.336 149.224L377.197 197.491C377.357 206.438 379.608 214.916 383.307 222.075C386.083 227.439 389.661 232.058 393.768 235.591C395.131 236.776 396.557 237.826 398.03 238.748C399.996 239.983 402.038 240.983 404.15 241.721C406.266 242.466 408.446 242.941 410.679 243.14L826.48 279.388C830.935 279.778 835.15 278.983 839.009 277.196C842.855 275.408 846.339 272.619 849.24 269.008C855.072 261.814 858.641 251.384 858.414 239.451L857.548 191.099C857.428 183.55 856.229 176.206 854.157 169.324C852.078 162.449 849.127 156.05 845.48 150.402C842.749 146.174 839.627 142.371 836.207 139.1C830.503 133.658 823.954 129.692 816.895 127.698C775.247 117.709 733.501 109.677 691.74 103.632C675.032 101.22 658.323 99.1202 641.622 97.3393C633.271 96.4525 624.913 95.6436 616.562 94.9199C608.155 94.1821 599.748 93.5293 591.34 92.9546C532.63 88.946 473.985 88.8325 415.343 92.6992Z" fill="white"/>
<path d="M439.363 175.032C439.265 175.032 439.162 175.026 439.058 175.019C437.436 174.881 436.061 173.721 435.618 172.129L424.166 130.932C423.884 129.923 424.028 128.852 424.557 127.994C425.069 127.164 425.881 126.601 426.841 126.408C427.186 126.34 427.532 126.326 427.876 126.36C429.435 126.491 430.816 127.644 431.276 129.223L442.739 170.44C443.015 171.456 442.877 172.52 442.348 173.378C441.837 174.209 441.025 174.772 440.059 174.964C440.053 174.964 440.053 174.964 440.048 174.964C439.829 175.005 439.599 175.032 439.363 175.032Z" fill="black"/>
<path d="M483.311 166.673C483.207 166.673 483.098 166.673 482.988 166.659C481.366 166.521 479.946 165.29 479.537 163.678L469.269 122.58C469.011 121.577 469.178 120.512 469.73 119.675C470.27 118.845 471.105 118.306 472.088 118.14C472.416 118.092 472.709 118.085 472.991 118.112C474.608 118.251 476.022 119.482 476.431 121.1L486.699 162.191C486.951 163.201 486.784 164.259 486.232 165.103C485.692 165.933 484.858 166.472 483.874 166.631C483.868 166.631 483.863 166.631 483.857 166.631C483.679 166.659 483.495 166.673 483.311 166.673Z" fill="black"/>
<path d="M794.975 206.039C794.868 206.039 794.768 206.032 794.662 206.026C794.309 205.992 793.995 205.919 793.696 205.806C791.823 205.113 790.73 203.08 791.203 201.188C791.203 201.188 791.203 201.188 791.21 201.188L801.232 161.864C801.659 160.185 803.218 159.085 804.958 159.238C805.264 159.265 805.597 159.332 805.917 159.452C807.796 160.151 808.883 162.184 808.403 164.07L798.38 203.4C797.98 204.966 796.574 206.039 794.975 206.039Z" fill="black"/>
<path d="M750.609 189.988C750.5 189.988 750.392 189.988 750.284 189.974C749.993 189.947 749.702 189.886 749.432 189.798C747.531 189.162 746.382 187.167 746.814 185.247L755.64 145.825C756.019 144.087 757.622 142.93 759.38 143.086C759.664 143.113 759.955 143.174 760.253 143.275C762.133 143.911 763.276 145.899 762.863 147.807L754.031 187.242C753.665 188.878 752.252 189.988 750.609 189.988Z" fill="black"/>
<path d="M707.532 178.918C707.423 178.918 707.314 178.918 707.211 178.905C707.013 178.884 706.842 178.857 706.671 178.816C704.717 178.344 703.405 176.445 703.672 174.491L708.919 134.757C709.152 132.878 710.798 131.539 712.705 131.71C712.917 131.73 713.108 131.758 713.299 131.812C715.192 132.243 716.511 134.142 716.244 136.117L711.003 175.85C710.764 177.648 709.295 178.918 707.532 178.918Z" fill="black"/>
<path d="M663.317 171.409C663.207 171.409 663.097 171.409 662.987 171.395C662.946 171.395 662.788 171.375 662.746 171.368C660.82 171.093 659.347 169.324 659.409 167.343L661.088 127.278C661.129 126.288 661.549 125.386 662.272 124.746C662.987 124.107 663.923 123.804 664.9 123.893C664.948 123.893 665.106 123.914 665.148 123.921C667.095 124.196 668.56 125.978 668.471 127.973L666.806 168.017C666.771 169.001 666.352 169.902 665.629 170.542C664.982 171.106 664.171 171.409 663.317 171.409Z" fill="black"/>
<path d="M616.664 164.912C616.56 164.912 616.456 164.905 616.352 164.898C614.387 164.725 612.822 163.036 612.788 161.05L612.068 120.787C612.054 119.756 612.462 118.773 613.196 118.095C613.909 117.423 614.892 117.091 615.896 117.174C617.854 117.347 619.426 119.043 619.46 121.036L620.18 161.292C620.201 162.316 619.792 163.292 619.066 163.971C618.422 164.573 617.557 164.912 616.664 164.912Z" fill="black"/>
<path d="M570.224 163.293C570.189 163.293 570.155 163.293 570.113 163.293C570.092 163.293 569.974 163.286 569.954 163.286C567.999 163.113 566.48 161.546 566.349 159.64L563.236 119.19C563.16 118.136 563.52 117.131 564.213 116.41C564.893 115.703 565.843 115.328 566.848 115.349C566.875 115.349 566.903 115.349 566.924 115.349C566.959 115.349 567.042 115.356 567.056 115.356C568.955 115.529 570.48 117.089 570.612 118.996L573.711 159.453C573.801 160.479 573.447 161.491 572.754 162.219C572.109 162.905 571.187 163.293 570.224 163.293Z" fill="black"/>
<path d="M519.043 118.655C519.043 118.655 519.043 118.655 519.05 118.655C519.05 118.655 519.05 118.655 519.043 118.655ZM526.117 163.111C526.006 163.111 525.882 163.104 525.778 163.09C524.065 162.944 522.587 161.557 522.296 159.796L515.617 119.009C515.444 117.982 515.7 116.935 516.339 116.145C516.942 115.382 517.85 114.917 518.828 114.855C519.029 114.841 519.238 114.841 519.425 114.862C521.131 115.007 522.608 116.387 522.906 118.149L529.592 158.929C529.765 159.955 529.502 160.996 528.878 161.786C528.274 162.556 527.359 163.028 526.374 163.097C526.291 163.104 526.208 163.111 526.117 163.111Z" fill="black"/>
<path d="M427.12 243.297L817.903 277.369C776.255 228.022 704.565 195.528 625.397 190.254C550.564 185.266 478.528 204.584 427.12 243.297ZM820.837 280.179C820.804 280.179 820.772 280.179 820.726 280.179L423.617 245.553C423.094 245.508 422.651 245.149 422.502 244.64C422.358 244.138 422.53 243.597 422.944 243.271C475.001 202.849 548.863 182.599 625.566 187.711C706.677 193.109 780.05 226.9 821.828 278.099C822.154 278.497 822.206 279.051 821.971 279.501C821.749 279.925 821.306 280.179 820.837 280.179Z" fill="black"/>
<path d="M625.708 249.122L733.831 195.428C735.746 194.507 737.28 195.293 737.892 196.627C738.511 197.962 738.208 199.851 736.468 201.153L657.587 257.638L631.394 254.653L625.708 249.122Z" fill="#152E37"/>
<path d="M585.447 258.707L664.958 265.635C662.57 248.745 647.21 234.909 627.541 233.292C608.014 231.682 590.714 242.639 585.447 258.707Z" fill="#152E37"/>
<path d="M587.209 257.575L663.427 264.219C660.364 248.404 645.501 236.044 627.438 234.556C609.562 233.093 592.95 242.694 587.209 257.575ZM664.959 266.909C664.921 266.909 664.884 266.909 664.847 266.902L585.341 259.972C584.949 259.941 584.594 259.73 584.383 259.406C584.165 259.082 584.115 258.671 584.233 258.304C589.762 241.449 608.037 230.397 627.644 232.01C647.487 233.647 663.713 247.713 666.223 265.452C666.279 265.838 666.154 266.23 665.886 266.51C665.644 266.765 665.307 266.909 664.959 266.909Z" fill="white"/>
<path d="M415.453 93.9706C405.922 94.9791 397.375 99.7236 390.731 107.7C389.822 108.794 388.93 109.973 388.073 111.208C385.531 114.902 383.396 119.078 381.727 123.617C378.835 131.5 377.451 140.109 377.613 149.2L378.475 197.469C378.625 205.907 380.687 214.217 384.444 221.49C387.124 226.668 390.633 231.213 394.596 234.623C395.907 235.752 397.288 236.775 398.709 237.663C400.618 238.863 402.592 239.822 404.576 240.518C406.6 241.228 408.694 241.683 410.788 241.867L826.589 278.119C830.723 278.481 834.715 277.778 838.465 276.038C842.151 274.319 845.447 271.691 848.245 268.211C854.19 260.874 857.351 250.667 857.138 239.467L856.278 191.119C856.157 183.846 855.028 176.637 852.933 169.698C850.902 162.965 848.039 156.708 844.41 151.096C841.732 146.949 838.678 143.22 835.326 140.024C829.601 134.562 823.287 130.826 816.554 128.929C775.096 118.986 733.027 110.896 691.555 104.894C674.9 102.487 658.06 100.37 641.482 98.6085C633.279 97.7349 624.855 96.9252 616.46 96.1865C607.979 95.4478 599.499 94.7944 591.253 94.2262C532.692 90.2275 473.543 90.1423 415.453 93.9706ZM828.692 280.761C827.918 280.761 827.151 280.733 826.362 280.662L410.563 244.41C408.257 244.204 405.956 243.707 403.73 242.926C401.567 242.173 399.422 241.129 397.351 239.829C395.821 238.87 394.331 237.769 392.934 236.555C388.723 232.939 385.002 228.131 382.172 222.662C378.239 215.041 376.078 206.347 375.921 197.512L375.059 149.25C374.892 139.839 376.329 130.918 379.331 122.736C381.073 117.991 383.305 113.63 385.968 109.76C386.871 108.453 387.815 107.217 388.769 106.066C395.85 97.5644 404.996 92.5002 415.211 91.4278C415.228 91.4278 415.24 91.4278 415.258 91.4278C473.467 87.5853 532.742 87.6705 591.43 91.6835C599.691 92.2446 608.185 92.9051 616.673 93.6438C625.09 94.3824 633.527 95.1992 641.752 96.0729C658.358 97.8343 675.234 99.958 691.925 102.373C733.468 108.382 775.614 116.486 817.2 126.458C824.388 128.482 831.064 132.424 837.094 138.177C840.581 141.515 843.763 145.393 846.555 149.712C850.312 155.529 853.281 161.999 855.376 168.959C857.542 176.126 858.7 183.562 858.828 191.07L859.695 239.424C859.915 251.221 856.555 262.01 850.234 269.816C847.18 273.595 843.586 276.471 839.544 278.353C836.093 279.958 832.442 280.761 828.692 280.761Z" fill="black"/>
<path d="M680.368 313.001C671.094 313.001 662.525 316.292 655.936 322.444C648.326 329.547 644.238 339.589 644.436 350.716L650.94 714.922C651.215 730.568 663.885 744.384 679.17 745.719L887.983 763.923C897.222 764.723 906.066 762.037 912.845 756.337C919.701 750.573 923.922 742.199 924.733 732.759L955.098 378.213C955.211 376.839 955.26 375.514 955.225 374.266C955.056 364.316 951.095 354.605 944.063 346.903C936.995 339.152 927.686 334.416 917.841 333.556L683.842 313.156C682.672 313.05 681.517 313.001 680.368 313.001ZM891.19 766.615C890.055 766.615 888.907 766.564 887.758 766.466L678.944 748.261C662.398 746.817 648.685 731.885 648.389 714.969L641.885 350.765C641.673 338.898 646.05 328.18 654.189 320.576C662.138 313.163 672.743 309.625 684.067 310.612L918.067 331.013C928.545 331.929 938.453 336.96 945.951 345.184C953.4 353.344 957.6 363.654 957.776 374.21C957.811 375.542 957.762 376.965 957.642 378.424C957.642 378.424 957.642 378.424 957.642 378.431L927.277 732.978C926.41 743.096 921.865 752.086 914.494 758.292C908.032 763.717 899.864 766.615 891.19 766.615Z" fill="black"/>
<path d="M834.079 733.631C834.04 733.631 833.995 733.625 833.956 733.625L698.009 720.93C684.124 719.666 672.627 706.614 672.375 691.837L666.953 375.39C666.779 364.739 670.626 355.204 677.791 348.543C684.395 342.41 693.097 339.499 702.315 340.338L860.152 354.694C860.862 354.759 861.372 355.379 861.307 356.082C861.243 356.786 860.642 357.289 859.919 357.238L702.089 342.881C693.607 342.107 685.589 344.786 679.534 350.415C672.905 356.573 669.341 365.429 669.509 375.345L674.925 691.797C675.158 705.309 685.615 717.238 698.248 718.388L834.195 731.083C834.892 731.146 835.415 731.767 835.351 732.469C835.286 733.131 834.731 733.631 834.079 733.631Z" fill="black"/>
<path d="M317.837 281.685C309.259 281.685 301.371 284.776 295.356 290.554C288.642 296.985 285.04 305.978 285.216 315.878C285.241 317.249 285.335 318.589 285.494 319.865L328.624 680.828C331.02 700.781 347.468 717.1 366.886 718.797L575.679 736.996C582.91 737.617 589.708 735.362 594.769 730.634C599.971 725.774 602.765 718.906 602.623 711.284L596.127 347.082C595.718 324.29 577.257 304.168 554.982 302.229L321.009 281.828C319.943 281.733 318.884 281.685 317.837 281.685ZM578.04 739.654C577.186 739.654 576.32 739.619 575.454 739.544L366.664 721.339C346.068 719.544 328.624 702.26 326.088 681.133L282.959 320.179C282.79 318.821 282.689 317.385 282.662 315.926C282.473 305.301 286.354 295.638 293.589 288.709C300.874 281.715 310.688 278.363 321.231 279.283L555.201 299.684C578.746 301.736 598.245 322.979 598.678 347.034L605.18 711.239C605.328 719.59 602.249 727.143 596.513 732.504C591.524 737.163 585.04 739.654 578.04 739.654Z" fill="black"/>
<path d="M379.644 695.171C379.605 695.171 379.565 695.166 379.526 695.166C362.265 693.584 347.649 678.381 345.527 659.802L323.642 467.289C323.562 466.593 324.064 465.96 324.765 465.879C325.49 465.793 326.098 466.305 326.178 467.001L348.064 659.515C350.051 676.915 363.677 691.145 379.758 692.623C380.461 692.687 380.978 693.308 380.914 694.009C380.853 694.671 380.296 695.171 379.644 695.171Z" fill="black"/>
<path d="M572.953 435.525C572.262 435.525 571.692 434.972 571.681 434.27L570.541 367.24C570.201 347.361 554.905 329.807 536.442 328.115L341.485 310.25C333.386 309.513 325.876 312.202 320.304 317.827C314.736 323.428 311.75 331.269 311.897 339.911C311.917 341.108 311.995 342.283 312.128 343.394L314.844 367.303C314.925 368 314.422 368.633 313.721 368.714C312.993 368.789 312.387 368.288 312.308 367.591L309.592 343.688C309.449 342.496 309.366 341.241 309.343 339.957C309.185 330.619 312.433 322.121 318.491 316.025C324.608 309.853 332.87 306.894 341.717 307.706L536.678 325.57C556.396 327.378 572.729 346.054 573.091 367.2L574.231 434.23C574.243 434.932 573.679 435.514 572.971 435.525C572.965 435.525 572.959 435.525 572.953 435.525Z" fill="black"/>
<path d="M613.182 898.464L603.312 894.961C561.495 889.664 519.154 889.583 477.314 894.726L464.464 896.307C448.911 898.223 427.41 920.126 429.625 935.231L443.786 1032.04C445.494 1043.73 455.779 1052.41 467.91 1052.41H590.422C602.622 1052.41 612.941 1043.63 614.569 1031.86L625.457 945.257C626.084 940.73 625.935 936.008 625.388 926.35C624.715 914.438 623.95 899.833 613.182 898.464Z" fill="#152E37"/>
<path d="M596.933 886.529L586.159 885.126C545.452 879.828 504.239 879.748 463.515 884.89L451.005 886.472C435.865 888.387 425.23 902.324 427.381 917.429L441.163 1014.23C442.831 1025.92 452.839 1034.61 464.648 1034.61H583.905C595.777 1034.61 605.82 1025.83 607.407 1014.06L620.482 917.279C622.506 902.278 611.946 888.485 596.933 886.529Z" fill="white"/>
<path d="M583.905 1035.89H464.648C453.72 1035.89 444.154 1028.9 440.835 1018.5C440.622 1017.83 440.99 1017.11 441.663 1016.9C442.331 1016.68 443.055 1017.05 443.268 1017.73C446.248 1027.06 454.841 1033.33 464.648 1033.33H583.905C595.087 1033.33 604.646 1024.97 606.142 1013.89L619.216 917.112C620.625 906.673 615.667 896.486 606.585 891.154C605.975 890.797 605.774 890.015 606.13 889.405C606.487 888.795 607.269 888.594 607.879 888.951C617.853 894.806 623.294 905.994 621.747 917.452L608.673 1014.23C607.005 1026.58 596.358 1035.89 583.905 1035.89Z" fill="black"/>
<path d="M436.648 983.807C436.021 983.807 435.474 983.347 435.388 982.708L426.116 917.607C425.029 909.963 427.007 902.37 431.695 896.227C436.377 890.09 443.182 886.172 450.844 885.206L463.354 883.624C464.062 883.538 464.694 884.033 464.781 884.734C464.867 885.43 464.372 886.069 463.671 886.161L451.166 887.737C444.183 888.623 437.988 892.189 433.726 897.78C429.458 903.371 427.652 910.285 428.647 917.251L437.913 982.352C438.017 983.048 437.528 983.692 436.832 983.795C436.768 983.801 436.711 983.807 436.648 983.807Z" fill="black"/>
<path d="M565.723 899.12L559.551 898.838C536.249 897.769 512.649 897.751 489.33 898.792L482.169 899.109C473.501 899.494 467.415 902.301 468.646 905.338L476.538 924.832C477.493 927.184 483.222 928.933 489.98 928.933H558.262C565.061 928.933 570.807 927.167 571.722 924.797L579.205 905.309C580.367 902.29 574.316 899.511 565.723 899.12Z" fill="white"/>
<path d="M523.917 899.304C512.378 899.304 500.846 899.557 489.388 900.063L482.226 900.386C475.514 900.679 470.964 902.451 469.94 904.044C469.704 904.418 469.745 904.659 469.831 904.861L477.723 924.354C478.281 925.74 482.853 927.656 489.98 927.656H558.262C565.435 927.656 569.996 925.729 570.525 924.337L578.015 904.855C578.089 904.654 578.13 904.412 577.882 904.044C576.847 902.462 572.32 900.702 565.665 900.397L559.493 900.115C547.69 899.575 535.801 899.304 523.917 899.304ZM558.262 930.21H489.98C483.687 930.21 476.722 928.697 475.353 925.309L467.461 905.821C467.03 904.763 467.145 903.67 467.795 902.663C469.503 900 474.99 898.148 482.111 897.832L489.278 897.515C512.614 896.48 536.278 896.491 559.608 897.561L565.78 897.843C572.838 898.165 578.296 900.006 580.022 902.64C580.672 903.635 580.799 904.717 580.396 905.769L572.913 925.257C571.595 928.68 564.607 930.21 558.262 930.21Z" fill="black"/>
<path d="M562.248 550.756C562.248 550.756 540.874 543.785 540.161 513.949C539.793 498.493 508.622 517.619 508.622 517.619C508.622 517.619 503.216 518.522 503.837 534.064C504.4 548.104 489.618 554.466 489.618 554.466C489.618 554.466 531.464 583.399 562.248 550.756Z" fill="white"/>
<path d="M492.2 554.575C500.409 559.47 534.138 576.922 560.04 551.199C554.707 548.645 539.488 539.16 538.884 513.978C538.838 511.913 538.176 510.561 536.876 509.854C531.147 506.747 515.024 515.191 509.29 518.706C509.152 518.792 508.996 518.85 508.83 518.878C508.841 518.878 504.562 520.178 505.114 534.012C505.58 545.608 496.44 552.171 492.2 554.575ZM527.219 567.477C506.563 567.477 489.163 555.703 488.893 555.513C488.513 555.254 488.301 554.8 488.347 554.34C488.393 553.879 488.686 553.477 489.112 553.293C489.25 553.235 503.083 547.086 502.566 534.115C501.973 519.362 506.753 516.848 508.116 516.428C511.015 514.668 530.221 503.331 538.096 507.61C540.241 508.778 541.369 510.9 541.438 513.92C542.122 542.525 562.438 549.473 562.645 549.542C563.065 549.675 563.381 550.014 563.485 550.44C563.594 550.865 563.479 551.314 563.18 551.63C551.854 563.64 538.999 567.477 527.219 567.477Z" fill="black"/>
<path d="M537.877 522.151C537.877 522.151 521.743 540.017 503.198 537.095C488.784 534.817 490.728 529.399 489.56 524.878C488.387 520.351 482.048 516.238 485.689 498.913C485.689 498.913 486.926 494.668 482.997 489.693C479.868 485.718 483.826 471.499 488.801 463.884C496.515 452.075 550.79 436.665 550.71 473.438C550.641 502.876 539.177 520.552 537.877 522.151Z" fill="white"/>
<path d="M525.28 451.672C510.659 451.672 493.834 458.511 489.871 464.585C484.78 472.374 481.542 485.781 484.004 488.899C488.283 494.335 486.972 499.074 486.914 499.27C484.268 511.901 487.093 517.107 489.163 520.909C489.865 522.203 490.475 523.325 490.797 524.556C491.004 525.355 491.119 526.16 491.228 526.943C491.752 530.612 492.246 534.075 503.4 535.83C520.656 538.556 536.111 522.186 536.905 521.329C537.4 520.65 549.364 503.544 549.433 473.438C549.456 462.676 544.716 455.796 535.346 452.995C532.269 452.08 528.841 451.672 525.28 451.672ZM507.409 538.7C505.959 538.7 504.487 538.591 502.997 538.355C490.946 536.451 489.428 532.401 488.703 527.305C488.594 526.563 488.496 525.861 488.324 525.194C488.082 524.268 487.541 523.273 486.92 522.128C484.792 518.211 481.571 512.292 484.435 498.654C484.498 498.419 485.425 494.829 481.996 490.481C478.223 485.695 482.876 470.625 487.731 463.188C493.167 454.864 519.108 445.483 536.077 450.55C543.353 452.725 552.021 458.459 551.987 473.443C551.918 504.878 539.004 522.796 538.872 522.957C538.861 522.974 538.843 522.991 538.826 523.008C538.205 523.699 524.44 538.7 507.409 538.7Z" fill="black"/>
<path d="M537.705 509.324C537.129 509.324 536.612 508.939 536.468 508.358C536.295 507.674 536.709 506.978 537.394 506.811C539.908 506.184 542.668 503.509 544.595 499.816C546.942 495.335 546.246 491.453 546.241 491.418C546.108 490.722 546.563 490.055 547.253 489.923C547.955 489.791 548.61 490.239 548.748 490.929C548.783 491.119 549.64 495.686 546.862 501.001C544.567 505.384 541.259 508.479 538.015 509.29C537.912 509.313 537.808 509.324 537.705 509.324Z" fill="black"/>
<path d="M487.047 459.846C498.027 453.047 503.474 440.962 520.891 438.477C530.687 437.085 536.963 439.84 540.834 442.032C541.835 442.601 543.25 434.767 544.101 436.078C545.769 438.632 547.857 449.227 547.857 449.227L559.108 445.943L553.523 454.243C553.523 454.243 561.702 470.435 552.016 493.944C550.767 496.981 549.444 499.327 548.087 501.111C547.023 502.508 544.82 501.387 545.378 499.724C547.224 494.168 546.517 487.634 540.897 486.04C534.322 484.182 532.424 489.877 531.671 493.495C531.245 495.56 531.912 496.785 530.336 497.751C530.336 497.751 527.604 499.218 526.367 496.825C524.533 493.282 521.127 486.794 511.677 481.283C498.453 473.57 489.008 481.111 481.485 475.468C474.254 470.05 477.625 465.678 487.047 459.846Z" fill="#152E37"/>
<path d="M551.699 813.772C551.699 813.772 541.685 846.219 548.443 862.699C557.543 884.873 558.095 962.289 558.095 962.289L575.225 965.464C575.225 965.464 605.319 870.648 599.205 832.731C593.09 794.814 551.699 813.772 551.699 813.772Z" fill="white"/>
<path d="M559.367 961.23L574.339 964.003C577.623 953.408 603.594 867.956 597.945 832.932C596.386 823.263 592.32 816.608 585.854 813.151C573.545 806.565 555.99 813.346 552.752 814.704C551.486 819.052 543.594 847.513 549.628 862.215C558.239 883.21 559.263 951.498 559.367 961.23ZM575.225 966.741C575.144 966.741 575.069 966.735 574.989 966.718L557.865 963.548C557.261 963.433 556.824 962.91 556.818 962.3C556.818 961.529 556.163 884.873 547.264 863.182C540.408 846.472 550.06 814.738 550.48 813.392C550.583 813.047 550.836 812.76 551.164 812.61C552.027 812.219 572.389 803.062 587.051 810.896C594.258 814.744 598.773 822.02 600.465 832.529C606.562 870.308 577.675 961.967 576.438 965.849C576.272 966.39 575.771 966.741 575.225 966.741Z" fill="black"/>
<path d="M557.555 939.706C557.986 951.745 558.084 960.626 558.095 962.082L576.151 962.473C576.853 960.183 577.911 956.669 579.205 952.211C579.631 950.641 580.01 949.289 580.258 948.518L580.379 948.133C581.098 945.614 581.863 942.881 582.662 939.971L557.555 939.706Z" fill="white"/>
<path d="M559.361 960.828L575.213 961.173C575.904 958.912 576.853 955.743 577.98 951.855C578.296 950.687 578.739 949.065 579.038 948.127L579.165 947.742C579.74 945.729 580.356 943.543 580.994 941.231L558.878 940.995C559.211 950.555 559.326 957.934 559.361 960.828ZM576.151 963.75C576.145 963.75 576.134 963.75 576.122 963.75L558.067 963.359C557.376 963.341 556.824 962.778 556.818 962.093C556.807 961.104 556.721 952.096 556.283 939.747C556.266 939.402 556.399 939.062 556.64 938.809C556.887 938.562 557.175 938.406 557.572 938.424L582.679 938.694C583.071 938.7 583.444 938.884 583.68 939.2C583.922 939.517 583.997 939.925 583.893 940.31C583.094 943.227 582.329 945.959 581.61 948.478L581.472 948.91C581.247 949.611 580.891 950.871 580.442 952.545C579.136 957.031 578.072 960.557 577.37 962.847C577.209 963.382 576.709 963.75 576.151 963.75Z" fill="black"/>
<path d="M554.794 1012.73C562.191 1013.58 574.305 1014.17 588.443 1011.76C593.085 1010.97 596.064 1006.28 594.816 1001.64C591.336 988.725 584.911 964.509 578.268 953.028L573.591 959.292L570.261 953.546C569.806 952.758 569.013 952.24 568.121 952.148L563.163 951.918C561.708 951.774 560.385 952.792 560.12 954.27L559.16 959.677L553.586 952.234L552.148 973.125C551.688 979.769 550.888 986.378 549.743 992.93L547.84 1003.85C547.391 1008.26 550.486 1012.23 554.794 1012.73Z" fill="white"/>
<path d="M554.938 1011.46C562.473 1012.33 574.368 1012.87 588.23 1010.51C590.1 1010.19 591.699 1009.12 592.734 1007.5C593.781 1005.87 594.086 1003.85 593.58 1001.97L593.303 1000.94C590.059 988.897 584.169 966.994 578.101 955.381L574.615 960.057C574.362 960.402 573.954 960.586 573.517 960.569C573.091 960.546 572.705 960.304 572.487 959.936L569.156 954.184C568.909 953.753 568.472 953.465 567.995 953.419L563.105 953.195C562.254 953.109 561.524 953.672 561.38 954.489L560.419 959.902C560.327 960.402 559.953 960.805 559.459 960.92C558.958 961.041 558.441 960.851 558.136 960.442L554.621 955.749L553.419 973.212C552.959 979.873 552.148 986.579 551.003 993.154L549.099 1004.07C548.737 1007.69 551.348 1011.05 554.938 1011.46ZM568.098 1014.75C562.806 1014.75 558.245 1014.41 554.644 1014C549.674 1013.42 546.056 1008.82 546.568 1003.73L548.484 992.711C549.617 986.229 550.416 979.608 550.871 973.039L552.309 952.148C552.349 951.613 552.712 951.159 553.223 951.009C553.735 950.859 554.288 951.044 554.604 951.469L558.418 956.56L558.866 954.046C559.24 951.929 561.173 950.44 563.289 950.647L568.179 950.871C569.542 951.009 570.71 951.768 571.365 952.907L573.724 956.98L577.244 952.263C577.497 951.918 577.923 951.74 578.337 951.751C578.768 951.78 579.153 952.016 579.372 952.39C585.929 963.715 592.09 986.602 595.771 1000.27L596.047 1001.3C596.737 1003.88 596.317 1006.64 594.885 1008.88C593.476 1011.08 591.21 1012.59 588.656 1013.02C581.109 1014.31 574.132 1014.75 568.098 1014.75Z" fill="black"/>
<path d="M572.861 1006.01C562.058 1006.01 553.712 1003.87 553.2 1003.74C552.516 1003.56 552.108 1002.86 552.286 1002.18C552.464 1001.49 553.154 1001.09 553.845 1001.26C554.029 1001.31 572.268 1005.98 589.415 1001.47C590.099 1001.29 590.795 1001.69 590.974 1002.37C591.152 1003.05 590.749 1003.75 590.065 1003.93C584.163 1005.49 578.21 1006.01 572.861 1006.01Z" fill="black"/>
<path d="M578.78 985.941H578.774L562.168 985.849C561.46 985.849 560.891 985.274 560.897 984.566C560.902 983.864 561.472 983.295 562.173 983.295C562.179 983.295 562.179 983.295 562.179 983.295L578.785 983.387C579.493 983.393 580.062 983.968 580.056 984.67C580.051 985.371 579.481 985.941 578.78 985.941Z" fill="black"/>
<path d="M520.057 811.742C520.057 811.742 532.355 847.772 524.947 863.97C513.903 888.117 514.973 973.89 514.973 973.89L492.626 970.779C492.626 970.779 468.071 871.919 474.185 834.002C480.305 796.085 520.057 811.742 520.057 811.742Z" fill="white"/>
<path d="M493.661 969.634L513.684 972.424C513.586 960.557 513.42 886.104 523.785 863.435C530.4 848.974 520.552 817.384 519.039 812.725C515.87 811.615 499.782 806.519 488.013 813.231C481.3 817.062 477.078 824.114 475.451 834.203C469.739 869.595 491.309 959.953 493.661 969.634ZM514.973 975.167C514.915 975.167 514.858 975.167 514.8 975.156L492.454 972.044C491.936 971.975 491.516 971.595 491.389 971.089C490.383 967.04 466.84 871.539 472.926 833.795C474.686 822.906 479.339 815.233 486.759 811.005C500.874 802.97 519.73 810.24 520.523 810.551C520.874 810.689 521.145 810.971 521.265 811.328C521.772 812.817 533.638 848.031 526.109 864.499C515.312 888.111 516.238 973.022 516.25 973.873C516.255 974.247 516.1 974.604 515.818 974.851C515.582 975.058 515.283 975.167 514.973 975.167Z" fill="black"/>
<path d="M486.057 941.714C489.67 958.855 492.626 970.779 492.626 970.779L504.912 972.493L513.851 972.803L515.019 956.37C515.076 951.906 515.168 946.804 515.329 941.323L486.057 941.714Z" fill="white"/>
<path d="M505.028 971.216L512.666 971.486L513.748 956.278C513.799 951.717 513.891 947.109 514.018 942.617L487.628 942.968C490.515 956.583 492.954 966.741 493.662 969.634L505.028 971.216ZM513.851 974.08C513.834 974.08 513.822 974.08 513.805 974.08L504.872 973.764C504.826 973.764 504.78 973.764 504.74 973.752L492.454 972.044C491.936 971.975 491.516 971.595 491.39 971.089C491.361 970.968 488.381 958.947 484.809 941.973C484.729 941.599 484.821 941.213 485.062 940.914C485.298 940.615 485.661 940.437 486.04 940.437L515.312 940.046C515.628 940.051 515.991 940.178 516.238 940.425C516.48 940.673 516.618 941.012 516.606 941.357C516.462 946.258 516.359 951.314 516.296 956.387L515.122 972.895C515.076 973.563 514.518 974.08 513.851 974.08Z" fill="black"/>
<path d="M518.729 994.862C518.654 998.526 516.037 1001.66 512.442 1002.36C499.925 1004.82 471.741 1010.27 463.722 1011.18C453.317 1012.36 438.235 1008.17 435.446 1002.5C431.845 995.167 448.411 982.409 457.004 977.445C469.773 970.071 482.313 955.047 487.369 954.523C492.425 954.006 501.306 968.932 501.306 968.932L516.888 963.025C516.888 963.025 519.103 976.272 518.729 994.862Z" fill="white"/>
<path d="M487.656 955.789C487.605 955.789 487.553 955.789 487.495 955.795C485.373 956.013 480.76 960.091 475.882 964.405C470.372 969.283 464.125 974.811 457.642 978.55C447.289 984.537 433.829 996.306 436.59 1001.93C438.994 1006.81 453.369 1011.07 463.578 1009.91C471.591 1009 500.247 1003.46 512.194 1001.11C515.18 1000.52 517.388 997.888 517.452 994.839C517.745 980.195 516.405 968.783 515.853 964.779L501.76 970.129C501.179 970.347 500.524 970.123 500.207 969.588C496.756 963.784 490.647 955.789 487.656 955.789ZM459.937 1012.66C449.705 1012.66 437.119 1008.79 434.301 1003.06C429.935 994.178 449.256 980.448 456.366 976.341C462.624 972.723 468.767 967.287 474.191 962.496C480.058 957.307 484.291 953.557 487.236 953.258C492.356 952.735 499.454 963.485 501.847 967.362L516.434 961.829C516.79 961.696 517.193 961.725 517.521 961.915C517.854 962.105 518.079 962.432 518.142 962.812C518.165 962.944 520.374 976.393 520.006 994.891C519.919 999.13 516.842 1002.8 512.683 1003.62C500.708 1005.96 471.971 1011.53 463.866 1012.45C462.618 1012.59 461.295 1012.66 459.937 1012.66Z" fill="black"/>
<path d="M459.771 1003.12C451.258 1003.12 444.344 1001.81 441.571 998.152C441.146 997.589 441.255 996.789 441.819 996.363C442.382 995.932 443.182 996.047 443.608 996.605C450.637 1005.88 495.945 996.519 512.81 992.13C513.489 991.957 514.19 992.366 514.369 993.045C514.541 993.729 514.133 994.425 513.454 994.603C508.973 995.771 479.897 1003.12 459.771 1003.12Z" fill="black"/>
<path d="M483.509 982.938C483.187 982.938 482.871 982.817 482.623 982.576L471.988 972.286C471.482 971.797 471.464 970.986 471.959 970.479C472.448 969.973 473.253 969.962 473.765 970.451L484.395 980.741C484.901 981.23 484.918 982.041 484.429 982.547C484.176 982.806 483.843 982.938 483.509 982.938Z" fill="black"/>
<path d="M447.778 712.612C447.778 712.612 448.284 738.375 452.61 766.905C457.2 797.189 465.753 830.516 470.941 836.855C481.007 849.158 519.068 843.044 527.46 834.094C532.309 828.917 534.012 817.194 534.581 808.233C534.639 807.307 535.996 807.278 536.094 808.204L537.963 825.063C539.033 830.487 542.531 835.135 547.477 837.597C554.638 841.163 566.246 845.443 580.701 845.466C592.751 845.489 602.863 836.349 609.288 827.709L614.615 783.338C616.99 763.517 618.33 743.592 618.618 723.632L618.923 702.546L447.778 712.612Z" fill="#448582"/>
<path d="M603.116 758.397C603.088 758.397 603.064 758.397 603.036 758.397C587.246 757.385 577.347 742.154 576.933 741.504C576.554 740.911 576.726 740.123 577.324 739.744C577.911 739.364 578.705 739.537 579.084 740.129C579.182 740.279 588.719 754.923 603.197 755.849C603.904 755.89 604.433 756.499 604.393 757.201C604.347 757.88 603.784 758.397 603.116 758.397Z" fill="black"/>
<path d="M462.486 760.06C461.818 760.06 461.26 759.542 461.214 758.869C461.168 758.162 461.703 757.558 462.405 757.512C481.352 756.269 488.347 743.011 488.416 742.879C488.738 742.252 489.509 742.004 490.13 742.321C490.762 742.643 491.01 743.414 490.688 744.04C490.383 744.639 482.951 758.72 462.572 760.06C462.543 760.06 462.514 760.06 462.486 760.06Z" fill="black"/>
<path d="M586.154 551.475C586.154 551.475 619.872 556.445 632.9 587.224C636.581 595.915 640.648 604.445 645.733 612.4C654.16 625.567 664.76 652.607 658.019 700.728C658.019 700.728 671.22 741.93 646.877 744.742C643.95 745.082 641.137 743.425 639.998 740.71C638.566 737.299 636.898 731.841 636.696 724.582C636.334 711.57 635.615 730 629.829 734.699C624.899 738.708 626.803 716.425 630.381 705.749C631.433 702.615 632.797 699.509 632.469 696.224C631.077 682.471 627.223 675.275 620.027 663.823C612.774 652.279 607.131 649.426 599.044 631.888C596.381 626.113 591.365 612.406 588.886 599.447C584.595 577.02 586.154 551.475 586.154 551.475Z" fill="white"/>
<path d="M636.19 718.732C636.271 718.732 636.346 718.732 636.432 718.743C637.818 718.904 637.853 720.101 637.973 724.547C638.175 731.674 639.826 737 641.171 740.215C642.098 742.407 644.387 743.747 646.734 743.477C651.353 742.942 654.706 740.969 656.978 737.437C664.542 725.715 656.886 701.361 656.805 701.113C656.748 700.935 656.731 700.739 656.759 700.55C663.271 654.068 653.774 627.332 644.657 613.085C640.228 606.159 636.116 598.101 631.727 587.724C620.625 561.495 593.769 554.357 587.356 552.999C587.114 558.711 586.51 580.224 590.146 599.211C592.602 612.055 597.617 625.739 600.206 631.353C605.279 642.357 609.294 647.401 613.539 652.739C615.943 655.759 618.428 658.876 621.109 663.144C628.638 675.126 632.342 682.281 633.734 696.098C634.045 699.152 633.05 701.982 632.089 704.714C631.922 705.192 631.755 705.675 631.594 706.152C628.241 716.155 627.338 731.748 628.851 733.836C628.897 733.808 628.954 733.767 629.023 733.71C631.721 731.518 633.32 725.467 634.183 722.212C634.833 719.75 635.109 718.732 636.19 718.732ZM646.135 746.065C642.989 746.065 640.061 744.156 638.819 741.205C637.53 738.133 635.983 733.255 635.529 726.836C634.482 730.155 632.963 733.802 630.634 735.694C629.115 736.925 627.942 736.356 627.505 736.057C623.455 733.25 626.584 713.054 629.173 705.341C629.334 704.852 629.512 704.357 629.679 703.869C630.588 701.286 631.445 698.841 631.198 696.351C629.857 683.075 626.262 676.144 618.946 664.502C616.34 660.36 613.901 657.295 611.543 654.332C607.384 649.109 603.087 643.708 597.888 632.423C595.248 626.7 590.134 612.757 587.632 599.688C583.364 577.359 584.859 551.653 584.877 551.395C584.9 551.038 585.072 550.704 585.348 550.48C585.624 550.256 585.987 550.158 586.338 550.21C586.683 550.261 620.919 555.645 634.074 586.729C638.474 597.111 642.397 604.819 646.808 611.71C656.138 626.286 665.865 653.539 659.325 700.619C660.239 703.581 666.975 726.658 659.129 738.823C656.449 742.976 652.376 745.392 647.027 746.013C646.728 746.048 646.429 746.065 646.135 746.065Z" fill="black"/>
<path d="M467.335 558.119C467.335 558.119 433.616 563.088 420.588 593.873C416.907 602.564 412.84 611.095 407.755 619.044C399.329 632.216 388.728 659.25 395.469 707.372C395.469 707.372 382.269 748.579 406.611 751.392C409.538 751.731 412.351 750.074 413.496 747.354C414.928 743.949 416.59 738.49 416.792 731.231C417.154 718.22 417.873 736.649 423.66 741.349C428.589 745.358 426.685 723.075 423.107 712.393C422.055 709.264 420.692 706.158 421.025 702.874C422.411 689.121 426.265 681.925 433.461 670.473C440.714 658.928 448.169 656.334 452.109 637.427C456.872 614.592 467.335 558.119 467.335 558.119Z" fill="white"/>
<path d="M465.736 559.735C458.689 561.288 432.65 568.65 421.767 594.368C417.309 604.894 413.318 612.717 408.831 619.734C399.714 633.982 390.218 660.717 396.735 707.199C396.758 707.389 396.74 707.579 396.683 707.763C396.602 708.01 388.946 732.364 396.51 744.087C398.782 747.613 402.136 749.591 406.755 750.126C409.124 750.391 411.396 749.051 412.317 746.859C413.668 743.644 415.319 738.317 415.515 731.191C415.636 726.744 415.67 725.554 417.056 725.393C418.333 725.254 418.604 726.227 419.305 728.861C420.162 732.117 421.767 738.168 424.465 740.359C424.534 740.411 424.591 740.451 424.637 740.48C426.15 738.398 425.247 722.804 421.894 712.801C421.733 712.324 421.566 711.847 421.399 711.363C420.439 708.631 419.443 705.801 419.754 702.741C421.146 688.931 424.85 681.775 432.38 669.794C434.669 666.153 436.953 663.415 439.156 660.769C444.01 654.942 448.203 649.915 450.861 637.168C455.083 616.933 463.889 569.663 465.736 559.735ZM407.353 752.709C407.059 752.709 406.76 752.692 406.461 752.657C401.112 752.042 397.039 749.62 394.359 745.467C386.513 733.307 393.249 710.23 394.163 707.268C387.623 660.188 397.35 632.935 406.68 618.359C411.086 611.463 415.014 603.761 419.415 593.373C432.569 562.289 466.805 556.911 467.151 556.859C467.559 556.796 467.973 556.939 468.255 557.233C468.543 557.532 468.663 557.946 468.589 558.354C468.485 558.918 458.068 615.104 453.357 637.686C450.573 651.059 445.977 656.57 441.117 662.402C438.966 664.985 436.74 667.654 434.542 671.151C427.226 682.787 423.631 689.724 422.296 703C422.043 705.491 422.9 707.935 423.809 710.518C423.982 711.007 424.154 711.496 424.315 711.99C426.904 719.704 430.033 739.899 425.983 742.7C425.552 743.005 424.373 743.575 422.854 742.338C420.525 740.445 419.006 736.799 417.959 733.486C417.511 739.905 415.958 744.777 414.669 747.848C413.427 750.805 410.505 752.709 407.353 752.709Z" fill="black"/>
<path d="M452.247 558.038C452.247 558.038 475.318 548.271 490.889 547.161C490.889 547.161 505.994 558.884 520.794 559.908C537.877 561.098 550.704 555.3 558.055 543.532C558.055 543.532 571.06 544.13 588.454 547.748C588.454 547.748 589.777 585.009 596.829 613.85C601.477 632.831 612.049 653.861 612.049 653.861C612.049 653.861 612.015 654.114 611.986 654.229C608.241 672.831 617.646 678.117 621.69 691.922C624.594 701.832 622.575 710.202 622.575 710.202C622.575 710.202 584.043 743.77 496.773 735.436C496.773 735.436 453.133 730.529 441.859 714.349C441.859 714.349 440.881 700.624 447.743 690.328C454.605 680.032 445.874 654.442 445.874 654.442C445.874 654.442 456.659 611.296 458.131 593.649C459.604 575.996 452.247 558.038 452.247 558.038Z" fill="white"/>
<path d="M443.113 713.912C454.266 729.212 496.486 734.118 496.911 734.164C578.521 741.958 617.537 712.617 621.419 709.5C621.753 707.751 622.88 700.521 620.464 692.278C619.176 687.872 617.306 684.335 615.506 680.907C611.721 673.728 608.144 666.946 610.72 654.056C609.282 651.128 599.878 631.675 595.593 614.155C589.231 588.15 587.494 554.955 587.223 548.795C572.901 545.884 561.639 545.033 558.728 544.849C550.98 556.727 537.871 562.381 520.707 561.184C506.851 560.224 493.052 550.376 490.504 548.473C477.303 549.554 458.661 556.813 453.892 558.746C455.508 563.088 460.685 578.4 459.403 593.752C457.993 610.652 448.318 649.909 447.203 654.39C448.29 657.703 455.56 680.895 448.807 691.036C442.854 699.963 443.027 711.755 443.113 713.912ZM523.612 738.024C515.191 738.024 506.207 737.616 496.652 736.707C494.823 736.5 452.287 731.547 440.812 715.079C440.68 714.889 440.599 714.671 440.588 714.441C440.542 713.866 439.656 700.159 446.679 689.621C453.116 679.963 444.746 655.109 444.666 654.856C444.585 654.626 444.574 654.373 444.637 654.137C444.741 653.705 455.411 610.887 456.86 593.545C458.287 576.416 451.137 558.7 451.068 558.527C450.803 557.877 451.102 557.135 451.752 556.865C452.701 556.462 475.198 547 490.797 545.89C491.113 545.873 491.424 545.965 491.671 546.154C491.821 546.27 506.649 557.647 520.886 558.636C537.331 559.781 549.807 554.322 556.974 542.853C557.215 542.462 557.624 542.232 558.113 542.255C558.245 542.26 571.423 542.899 588.713 546.494C589.288 546.615 589.714 547.109 589.731 547.702C589.743 548.07 591.129 585.165 598.072 613.545C602.627 632.176 613.084 653.078 613.188 653.285C613.303 653.521 613.349 653.78 613.309 654.033C613.309 654.033 613.269 654.338 613.24 654.482C610.812 666.532 614.034 672.647 617.761 679.722C619.624 683.253 621.551 686.912 622.915 691.559C625.883 701.683 623.904 710.144 623.818 710.501C623.754 710.759 623.616 710.99 623.415 711.162C623.07 711.467 591.693 738.024 523.612 738.024Z" fill="black"/>
<path d="M1005.44 970.301L1003.91 998.635L984.956 1001.83L983.268 968.408L1005.44 970.301Z" fill="white"/>
<path d="M984.623 969.806L986.158 1000.33L1002.69 997.542L1004.1 971.469L984.623 969.806ZM984.961 1003.1C984.667 1003.1 984.388 1003.01 984.16 1002.82C983.873 1002.6 983.704 1002.26 983.682 1001.89L982 968.478C981.978 968.104 982.125 967.747 982.389 967.494C982.654 967.235 983.028 967.108 983.381 967.138L1005.55 969.03C1006.24 969.087 1006.75 969.68 1006.72 970.37L1005.17 998.705C1005.15 999.297 1004.7 999.791 1004.11 999.895L985.174 1003.09C985.1 1003.1 985.034 1003.1 984.961 1003.1Z" fill="black"/>
<path d="M984.437 1049.74C992.428 1050.46 1005.51 1052.09 1020.7 1049.2C1025.66 1048.25 1028.74 1043.22 1027.28 1038.38C1023.23 1024.87 1016.12 999.205 1005.56 987.677L1003.27 993.32L999.686 988.35C999.169 987.533 998.302 987.01 997.344 986.936L989.817 986.366C988.246 986.245 986.839 987.355 986.6 988.914L986.383 992.308L981.332 987.407L980.045 1017.36C979.791 1023.2 979.133 1027.71 978.063 1033.45L976.738 1040.57C976.357 1045.21 979.784 1049.32 984.437 1049.74Z" fill="white"/>
<path d="M984.545 1048.46L986.694 1048.67C994.673 1049.42 1006.73 1050.55 1020.46 1047.94C1022.48 1047.56 1024.25 1046.33 1025.31 1044.58C1026.37 1042.83 1026.65 1040.71 1026.06 1038.75L1025.18 1035.82C1021.29 1022.71 1014.89 1001.2 1005.95 990.099L1004.45 993.797C1004.28 994.229 1003.88 994.528 1003.42 994.586C1002.94 994.643 1002.5 994.442 1002.23 994.062L998.648 989.098C998.311 988.557 997.802 988.253 997.248 988.206L989.718 987.638C988.775 987.568 987.996 988.218 987.861 989.11L987.659 992.389C987.629 992.889 987.307 993.32 986.843 993.499C986.379 993.683 985.848 993.573 985.496 993.228L982.487 990.306L981.326 1017.42C981.064 1023.4 980.391 1027.91 979.313 1033.68L977.995 1040.73C977.718 1044.65 980.638 1048.11 984.545 1048.46ZM1002.46 1052.13C996.193 1052.13 990.743 1051.61 986.462 1051.21L984.321 1051.01C978.998 1050.53 975.031 1045.8 975.465 1040.46C975.465 1040.42 975.465 1040.37 975.48 1040.33L976.805 1033.22C977.861 1027.56 978.519 1023.14 978.766 1017.31L980.061 987.349C980.076 986.849 980.391 986.406 980.855 986.222C981.326 986.033 981.858 986.142 982.217 986.492L985.279 989.46L985.324 988.834C985.683 986.515 987.697 984.928 989.912 985.095L997.443 985.664C998.805 985.768 1000.05 986.521 1000.77 987.678L1002.95 990.698L1004.37 987.194C1004.53 986.792 1004.9 986.498 1005.32 986.418C1005.77 986.343 1006.2 986.487 1006.49 986.815C1016.54 997.772 1023.48 1021.13 1027.63 1035.09L1028.51 1038.02C1029.3 1040.67 1028.93 1043.54 1027.5 1045.9C1026.06 1048.28 1023.66 1049.93 1020.94 1050.45C1014.29 1051.71 1008.05 1052.13 1002.46 1052.13Z" fill="black"/>
<path d="M1001.66 1043.48C991.048 1043.48 983.049 1041.67 982.527 1041.55C981.842 1041.39 981.418 1040.71 981.574 1040.02C981.73 1039.33 982.423 1038.91 983.101 1039.06C983.302 1039.11 1003.09 1043.58 1021.5 1038.4C1022.17 1038.21 1022.88 1038.6 1023.07 1039.28C1023.26 1039.96 1022.87 1040.67 1022.19 1040.86C1015.11 1042.85 1007.93 1043.48 1001.66 1043.48Z" fill="black"/>
<path d="M991.713 1022.5C991.02 1022.5 990.452 1021.94 990.438 1021.24C990.423 1020.54 990.99 1019.96 991.691 1019.95L1009.58 1019.63C1010.24 1019.61 1010.87 1020.18 1010.88 1020.89C1010.9 1021.59 1010.34 1022.17 1009.63 1022.18L991.735 1022.5C991.728 1022.5 991.728 1022.5 991.713 1022.5Z" fill="black"/>
<path d="M915.423 959.799L914.642 1001.07L891.71 1002.23L888.567 961.151L915.423 959.799Z" fill="white"/>
<path d="M889.943 962.359L892.885 1000.89L913.392 999.856L914.119 961.139L889.943 962.359ZM891.71 1003.5C891.051 1003.5 890.487 1002.99 890.439 1002.32L887.3 961.248C887.266 960.903 887.381 960.563 887.612 960.304C887.837 960.046 888.163 959.891 888.503 959.874L915.355 958.522C915.729 958.498 916.055 958.631 916.313 958.878C916.565 959.126 916.707 959.465 916.701 959.822L915.919 1001.09C915.899 1001.77 915.376 1002.31 914.703 1002.35L891.771 1003.5C891.757 1003.5 891.73 1003.5 891.71 1003.5Z" fill="black"/>
<path d="M921.808 1023.98C922.061 1027.87 919.576 1031.42 915.828 1032.5C902.801 1036.23 873.449 1044.56 865.044 1046.24C854.127 1048.44 840.444 1045.75 834.313 1039.61C828.182 1033.47 846.227 1017.17 854.871 1011.13C867.72 1002.17 879.641 985.123 884.946 984.117C890.251 983.105 901.012 998.106 901.012 998.106L916.968 990.438C916.968 990.438 920.518 1004.27 921.808 1023.98Z" fill="white"/>
<path d="M885.518 985.336C885.402 985.336 885.292 985.348 885.183 985.37C882.927 985.796 878.409 990.541 873.624 995.563C868.231 1001.22 862.12 1007.64 855.605 1012.18C847.054 1018.15 834.928 1029.76 834.367 1036.05C834.271 1037.17 834.545 1038.04 835.222 1038.71C840.922 1044.42 853.917 1047.18 864.792 1044.99C873.207 1043.3 903.038 1034.83 915.478 1031.27C918.623 1030.37 920.742 1027.34 920.53 1024.07C919.512 1008.41 917.03 996.374 916.101 992.273L901.568 999.256C901.007 999.526 900.338 999.354 899.975 998.854C895.853 993.107 888.799 985.336 885.518 985.336ZM857.136 1048.28C847.71 1048.28 838.243 1045.35 833.41 1040.52C832.193 1039.29 831.653 1037.71 831.824 1035.83C832.542 1027.65 847.17 1014.95 854.142 1010.09C860.445 1005.69 866.46 999.371 871.772 993.803C877.507 987.787 881.642 983.444 884.711 982.857C890.023 981.851 898.574 992.658 901.418 996.495L916.422 989.288C916.764 989.121 917.167 989.121 917.515 989.276C917.857 989.437 918.117 989.748 918.206 990.116C918.247 990.26 921.795 1004.29 923.08 1023.9C923.374 1028.36 920.475 1032.49 916.183 1033.72C903.714 1037.29 873.802 1045.79 865.298 1047.5C862.653 1048.03 859.891 1048.28 857.136 1048.28Z" fill="black"/>
<path d="M856.417 1037.7C850.681 1037.7 845.683 1036.88 842.192 1034.83C841.581 1034.48 841.378 1033.69 841.737 1033.08C842.09 1032.47 842.87 1032.27 843.48 1032.63C859.4 1041.96 911.947 1022.75 912.476 1022.56C913.127 1022.31 913.866 1022.65 914.11 1023.31C914.354 1023.97 914.022 1024.71 913.357 1024.95C911.601 1025.6 878.487 1037.7 856.417 1037.7Z" fill="black"/>
<path d="M883.316 1014.47C883.033 1014.47 882.756 1014.38 882.511 1014.18L870.317 1004.25C869.769 1003.81 869.69 1003 870.139 1002.45C870.581 1001.91 871.386 1001.83 871.934 1002.27L884.128 1012.2C884.676 1012.65 884.755 1013.45 884.313 1014C884.062 1014.31 883.693 1014.47 883.316 1014.47Z" fill="black"/>
<path d="M997.668 686.842C997.668 686.842 1011.26 815.06 1017.21 859.253C1023.17 903.451 1014.35 975.426 1014.35 975.426L978.862 975.351C978.862 975.351 973.849 911.481 969.999 878.257C969.053 870.112 966.796 862.186 963.378 854.732C958.008 843.021 949.577 822.848 945.726 803.958C939.82 775.06 922.407 729.815 922.407 729.815C922.407 729.815 921.729 960.05 921.454 978.152C921.454 978.152 893.763 980.787 883.5 975.029C883.5 975.029 861.64 892.194 861.878 846.512C862.109 800.829 853.626 687.791 853.626 687.791L997.668 686.842Z" fill="white"/>
<path d="M884.593 974.166C893.547 978.721 915.011 977.382 920.2 976.979C920.476 952.165 921.124 732.07 921.132 729.809C921.132 729.194 921.572 728.671 922.175 728.561C922.772 728.452 923.376 728.78 923.599 729.355C923.771 729.809 941.119 775.032 946.972 803.706C950.886 822.859 959.653 843.561 964.537 854.196C968.056 861.852 970.315 869.899 971.269 878.114C974.788 908.501 979.336 965.204 980.044 974.074L1013.22 974.143C1014.29 964.825 1021.41 899.953 1015.94 859.425C1010.35 817.942 997.892 701.02 996.52 688.125L854.995 689.057C855.957 702.056 863.375 804.016 863.151 846.517C862.935 889.594 882.714 966.947 884.593 974.166ZM907.436 980.045C898.84 980.045 888.485 979.291 882.871 976.145C882.573 975.972 882.349 975.69 882.259 975.357C882.043 974.522 860.371 891.832 860.602 846.506C860.833 801.399 852.438 689.017 852.349 687.883C852.326 687.532 852.446 687.181 852.684 686.922C852.93 686.664 853.258 686.514 853.616 686.514L997.661 685.565C998.317 685.565 998.868 686.06 998.936 686.71C999.07 687.986 1012.59 815.411 1018.48 859.086C1024.39 902.939 1015.71 974.856 1015.61 975.581C1015.54 976.219 1014.99 976.702 1014.35 976.702L978.858 976.628C978.195 976.622 977.643 976.11 977.591 975.449C977.539 974.81 972.536 911.222 968.734 878.407C967.81 870.457 965.618 862.669 962.218 855.261C957.283 844.527 948.433 823.619 944.467 804.217C939.986 782.239 928.669 750.402 923.666 736.81C923.547 775.538 922.973 962.058 922.735 978.17C922.72 978.825 922.228 979.36 921.579 979.424C921.042 979.475 914.906 980.045 907.436 980.045Z" fill="black"/>
<path d="M985.353 866.681C983.322 866.681 981.291 866.336 979.347 865.634C978.685 865.398 978.335 864.661 978.576 864C978.816 863.338 979.544 862.993 980.206 863.229C984.669 864.84 989.707 864.259 993.682 861.676C994.272 861.291 995.065 861.458 995.451 862.05C995.829 862.642 995.662 863.431 995.072 863.816C992.168 865.709 988.768 866.681 985.353 866.681Z" fill="black"/>
<path d="M993.544 725.155C993.493 725.155 993.457 725.155 993.413 725.149C986.859 724.465 979.075 719.875 976.893 709.038C976.755 708.348 977.199 707.675 977.89 707.537C978.595 707.399 979.257 707.842 979.395 708.532C981.309 718.011 988.023 722.02 993.675 722.613C994.373 722.682 994.883 723.309 994.81 724.01C994.744 724.672 994.184 725.155 993.544 725.155Z" fill="black"/>
<path d="M901.032 936.375C900.368 936.375 899.805 935.858 899.758 935.185C898.343 914.622 872.676 877.095 872.421 876.722C872.026 876.141 872.173 875.347 872.75 874.944C873.333 874.547 874.125 874.691 874.527 875.272C875.6 876.836 900.844 913.759 902.306 935.013C902.353 935.714 901.823 936.324 901.119 936.37C901.092 936.375 901.065 936.375 901.032 936.375Z" fill="black"/>
<path d="M866.07 503.944C858.304 481.563 846.85 484.626 838.616 491.137C832.69 495.814 828.71 502.552 827.377 509.986C826.271 516.119 824.001 525.05 819.428 533.388C810.869 548.985 779.207 555.261 768.163 555.216C763.343 555.196 750.426 539.736 742.127 542.351C736.163 544.237 747.278 553.694 745.886 554.377C740.729 556.9 735.831 556.361 731.154 556.335C723.564 556.309 716.787 554.253 713.944 554.234C710.348 554.214 709.144 557.896 710.634 561.174C712.761 565.85 717.411 572.94 725.093 575.424C738.829 579.847 762.316 575.704 770.504 574.11C776.748 572.894 850.291 577.46 859.657 546.774C861.601 540.393 869.341 513.362 866.07 503.944Z" fill="white"/>
<path d="M713.912 555.513C712.941 555.513 712.225 555.865 711.769 556.562C711.118 557.578 711.124 559.173 711.788 560.645C713.26 563.869 717.526 571.646 725.479 574.205C737.866 578.198 758.851 575.078 770.262 572.857C771.362 572.642 774.046 572.597 778.097 572.531C797.994 572.193 850.833 571.3 858.434 546.402C859.437 543.106 868.17 513.895 864.862 504.361C861.592 494.962 857.457 489.472 852.559 488.046C848.697 486.912 844.268 488.293 839.396 492.142C833.743 496.61 829.92 503.032 828.624 510.216C827.523 516.37 825.218 525.488 820.541 534.001C811.723 550.075 780.142 556.497 768.282 556.497C768.242 556.497 768.203 556.497 768.151 556.497C765.852 556.49 762.746 554.132 758.818 551.162C753.53 547.157 746.952 542.168 742.503 543.575C741.78 543.803 741.696 544.083 741.67 544.174C741.253 545.49 743.799 548.772 745.167 550.537C746.704 552.517 747.479 553.514 747.245 554.53C747.141 554.966 746.854 555.324 746.444 555.526C741.754 557.825 737.391 557.734 733.164 557.643C732.486 557.63 731.816 557.623 731.145 557.617C726.312 557.597 721.779 556.77 718.464 556.171C716.556 555.819 714.902 555.52 713.938 555.513C713.931 555.513 713.918 555.513 713.912 555.513ZM740.843 578.667C734.929 578.667 729.282 578.113 724.697 576.635C715.774 573.762 711.072 565.237 709.47 561.707C708.434 559.427 708.493 556.926 709.626 555.174C710.551 553.742 712.075 552.96 713.912 552.96C713.925 552.96 713.938 552.96 713.951 552.96C715.136 552.967 716.803 553.273 718.927 553.657C722.144 554.237 726.553 555.044 731.158 555.064C731.835 555.07 732.526 555.077 733.216 555.09C736.831 555.168 740.543 555.24 744.34 553.676C744.001 553.201 743.539 552.602 743.155 552.107C741.045 549.391 738.42 546.004 739.227 543.412C739.462 542.663 740.087 541.66 741.735 541.139C747.434 539.335 754.598 544.767 760.362 549.124C763.482 551.488 766.718 553.937 768.164 553.937C768.203 553.937 768.242 553.937 768.282 553.937C779.314 553.937 810.108 547.698 818.307 532.77C822.814 524.564 825.042 515.732 826.11 509.766C827.517 501.964 831.665 494.995 837.814 490.13C843.376 485.747 848.579 484.223 853.275 485.59C859.013 487.271 863.722 493.302 867.272 503.527C870.776 513.609 862.556 541.634 860.869 547.151C852.728 573.821 798.541 574.739 778.149 575.085C774.501 575.15 771.636 575.195 770.743 575.365C763.228 576.83 751.608 578.667 740.843 578.667Z" fill="black"/>
<path d="M1021.1 534.057C1021.1 534.057 1026.89 462.622 979.139 444.401C936.093 427.98 878.665 428.234 847.774 448.696C832.526 458.804 818.631 520.585 818.631 520.585L842.903 548.034C842.903 548.034 841.491 683.949 849.814 719.392C849.814 719.392 890.163 722.05 906.837 714.492C923.512 706.934 978.974 694.728 1006.33 705.662L992.825 533.004L1021.1 534.057Z" fill="#448582"/>
<path d="M850.838 718.176C857.005 718.515 891.512 720.033 906.299 713.332C922.61 705.941 976.389 693.856 1004.89 703.772L991.542 533.105C991.512 532.743 991.639 532.386 991.893 532.122C992.148 531.857 992.514 531.719 992.865 531.731L1019.89 532.738C1020.35 523.292 1021.58 461.973 978.669 445.602C933.854 428.491 877.877 430.292 848.475 449.766C834.638 458.931 821.541 513.698 820.024 520.238L843.848 547.192C844.065 547.428 844.177 547.733 844.177 548.049C844.162 549.395 842.884 681.892 850.838 718.176ZM866.065 721.143C857.147 721.143 850.389 720.718 849.724 720.672C849.163 720.631 848.692 720.234 848.565 719.688C840.477 685.217 841.516 558.857 841.613 548.515L817.676 521.44C817.407 521.13 817.295 520.71 817.385 520.313C817.953 517.771 831.566 457.907 847.07 447.635C877.092 427.743 934.063 425.844 979.589 443.21C1027.68 461.562 1022.42 533.439 1022.36 534.164C1022.3 534.848 1021.71 535.371 1021.04 535.337L994.203 534.336L1007.6 705.567C1007.64 706.005 1007.44 706.43 1007.08 706.695C1006.72 706.953 1006.26 707.017 1005.85 706.85C978.565 695.944 923.754 708.23 907.36 715.656C897.336 720.2 879.305 721.143 866.065 721.143Z" fill="white"/>
<path d="M967.691 673.44C967.641 673.44 967.584 673.44 967.527 673.434C901.834 665.209 880.501 620.826 880.295 620.377C879.996 619.739 880.281 618.98 880.914 618.686C881.554 618.387 882.316 618.663 882.607 619.302C882.814 619.739 903.627 662.856 967.848 670.897C968.552 670.983 969.043 671.622 968.958 672.324C968.879 672.968 968.324 673.44 967.691 673.44Z" fill="black"/>
<path d="M845.607 595.014L914.023 597.205C916.213 597.275 917.805 595.135 917.104 593.052L889.068 509.503C888.647 508.258 887.497 507.401 886.178 507.353L817.769 505.163C815.572 505.095 813.98 507.231 814.681 509.312L842.716 592.869C843.138 594.117 844.288 594.968 845.607 595.014Z" fill="white"/>
<path d="M845.647 593.735L914.062 595.927C914.688 595.95 915.253 595.674 915.628 595.174C915.995 594.673 916.091 594.046 915.9 593.46L887.853 509.904C887.608 509.169 886.921 508.658 886.145 508.631L817.73 506.439C817.11 506.432 816.539 506.698 816.171 507.188C815.797 507.692 815.695 508.318 815.892 508.903L843.932 592.458C844.184 593.195 844.871 593.707 845.647 593.735ZM914.123 598.481C914.076 598.481 914.028 598.481 913.98 598.481L845.566 596.29C843.728 596.226 842.101 595.018 841.515 593.27L813.469 509.72C813.012 508.345 813.251 506.827 814.115 505.67C814.987 504.506 816.368 503.852 817.812 503.886L886.226 506.078C888.064 506.139 889.698 507.351 890.277 509.094L918.317 592.648C918.78 594.017 918.541 595.536 917.677 596.698C916.833 597.819 915.519 598.481 914.123 598.481Z" fill="black"/>
<path d="M835.256 512.838L865.289 513.805C866.256 513.831 866.95 512.897 866.645 511.982L863.102 500.379C862.92 499.834 862.414 499.451 861.83 499.431L831.797 498.471C830.837 498.438 830.142 499.379 830.447 500.294L833.99 511.897C834.179 512.443 834.685 512.819 835.256 512.838Z" fill="white"/>
<path d="M831.763 499.748C831.77 499.761 831.672 499.911 831.672 499.924L835.213 511.52L835.258 512.833L835.297 511.566L865.332 512.527C865.332 512.514 865.429 512.365 865.429 512.352L861.882 500.749L831.763 499.748ZM865.338 515.08C865.306 515.08 865.28 515.08 865.247 515.08L835.219 514.112C834.115 514.08 833.134 513.346 832.783 512.3L829.229 500.664C828.963 499.878 829.106 498.962 829.626 498.267C830.145 497.572 830.984 497.189 831.848 497.195L861.882 498.157C862.98 498.189 863.961 498.923 864.312 499.969L867.865 511.605C868.132 512.397 867.989 513.307 867.469 514.002C866.969 514.684 866.176 515.08 865.338 515.08Z" fill="black"/>
<path d="M1014.66 532.421L978.21 530.782C978.21 530.782 977.937 561.468 974.653 562.015C962.931 563.971 938.4 564.063 922.432 562.136C916.871 561.468 912.471 557.212 911.428 551.708C910.636 547.554 909.771 541.279 902.679 539.162C896.474 537.311 902.605 546.45 897.443 553.33C894.669 557.022 885.898 555.383 873.925 552.611C861.966 549.844 858.926 562.63 872.334 570.356C886.874 578.737 896.111 577.793 900.748 578.776C909.978 580.732 991.633 593.524 1004.24 586.679C1013.98 581.382 1014.66 532.421 1014.66 532.421Z" fill="white"/>
<path d="M870.78 553.507C868.026 553.507 865.975 554.617 865.168 556.648C863.917 559.828 865.827 565.131 872.971 569.25C884.165 575.698 892.058 576.497 897.262 577.027C898.706 577.176 899.957 577.303 901.016 577.521C910.418 579.517 991.546 592.114 1003.63 585.551C1010.86 581.623 1013.07 547.881 1013.36 533.64L979.471 532.115C979.116 562.566 975.917 563.096 974.858 563.274C962.857 565.276 938.285 565.339 922.279 563.406C916.2 562.67 911.336 558.068 910.174 551.948L910.07 551.379C909.308 547.283 908.353 542.187 902.319 540.381C901.364 540.099 901.09 540.219 901.082 540.219C900.846 540.507 900.912 542.118 900.949 543.188C901.075 546.23 901.238 550.395 898.469 554.094C895.197 558.454 886.12 556.746 873.645 553.858C872.631 553.622 871.668 553.507 870.78 553.507ZM988.407 589.963C959.267 589.963 905.103 581.002 900.49 580.024C899.557 579.828 898.38 579.707 897.01 579.569C891.576 579.017 883.366 578.183 871.705 571.459C863.243 566.587 861.155 559.88 862.792 555.716C864.013 552.615 867.663 549.848 874.215 551.367C884.987 553.863 894.094 555.676 896.426 552.558C898.654 549.59 898.513 546.093 898.402 543.286C898.314 541.002 898.247 539.196 899.535 538.195C900.623 537.35 902.06 537.643 903.044 537.936C910.574 540.185 911.781 546.639 912.58 550.907L912.684 551.471C913.639 556.492 917.614 560.271 922.59 560.869C938.307 562.768 962.346 562.728 974.229 560.789C975.754 558.816 976.82 543.815 976.939 530.769C976.939 530.419 977.08 530.091 977.331 529.849C977.583 529.613 977.924 529.487 978.271 529.504L1014.72 531.149C1015.41 531.177 1015.94 531.747 1015.93 532.438C1015.87 537.528 1014.96 582.307 1004.85 587.794C1002 589.348 996.07 589.963 988.407 589.963Z" fill="black"/>
<path d="M907.44 413.981C911.176 417.07 918.35 420.709 923.68 417.683C927.639 415.428 929.643 410.015 929.198 403.94C931.084 404.003 933.547 403.745 935.231 402.096C937.819 399.564 937.089 395.18 936.845 392.285C935.676 378.933 943.344 376.49 940.985 367.507C939.134 360.445 933.31 356.479 932.225 355.734C926.735 351.991 923.214 353.466 914.203 351.587C899.035 348.421 898.234 341.992 888.375 342.458C887.804 342.486 874.389 343.314 870.297 352.812C866.978 360.542 871.766 369.491 876.483 374.076C882.592 380.018 886.593 376.727 892.668 381.667C903.342 390.33 896.342 404.81 907.44 413.981Z" fill="#152E37"/>
<path d="M876.724 388.665C879.684 385.837 882.822 380.243 883.788 376.262C887.313 361.735 900.509 359.058 901.868 373.186C902.241 376.952 916.003 376.062 914.575 380.105C910.829 390.645 910.594 387.872 916.803 391.369C917.486 391.369 918.175 391.48 918.824 391.749C921.983 393.032 923.287 397.164 921.735 400.978C920.797 403.296 919.01 404.945 917.058 405.614L917.879 421.928C918.189 428.04 922.163 433.365 927.943 435.393L933.565 437.366C933.565 437.366 908.725 455.426 881.726 438.332L885.126 436.601C891.114 433.538 894.839 427.336 894.708 420.611L894.577 417.424C892.832 417.665 891.128 417.631 889.541 417.258C882.14 415.499 879.297 407.221 880.008 396.715L876.787 393.791C875.283 392.425 875.255 390.066 876.724 388.665Z" fill="white"/>
<path d="M884.356 438.433C905.082 450.284 924.323 441.341 930.642 437.694L927.514 436.596C921.222 434.386 916.94 428.661 916.609 421.989L915.78 405.676C915.752 405.11 916.104 404.592 916.643 404.406C918.328 403.832 919.785 402.375 920.552 400.504C921.837 397.347 920.835 393.949 918.342 392.934C917.872 392.741 917.389 392.665 916.809 392.651C916.595 392.637 916.367 392.603 916.173 392.492C915.11 391.884 914.233 391.477 913.542 391.152C909.757 389.371 910.186 388.231 911.974 383.459C912.361 382.444 912.824 381.2 913.369 379.681C913.404 379.557 913.397 379.522 913.39 379.515C912.983 378.783 910.103 378.127 908.19 377.692C904.592 376.877 900.862 376.034 900.6 373.313C900.123 368.417 898.079 365.371 895.13 365.164C891.642 364.901 886.905 368.824 885.026 376.566C883.99 380.834 880.661 386.677 877.609 389.592C877.153 390.02 876.911 390.607 876.918 391.228C876.925 391.85 877.18 392.43 877.65 392.844L880.861 395.773C881.152 396.035 881.303 396.415 881.276 396.802C880.544 407.548 883.665 414.558 889.833 416.015C891.207 416.347 892.74 416.388 894.398 416.16C894.75 416.105 895.116 416.208 895.392 416.443C895.669 416.671 895.834 417.01 895.848 417.369L895.986 420.559C896.117 427.749 892.084 434.483 885.703 437.735L884.356 438.433ZM906.215 446.914C898.535 446.914 889.888 445.015 881.041 439.414C880.654 439.165 880.426 438.737 880.447 438.274C880.468 437.825 880.737 437.411 881.145 437.204L884.543 435.463C890.061 432.646 893.548 426.83 893.431 420.635L893.355 418.826C891.898 418.909 890.517 418.805 889.239 418.501C881.863 416.754 878.037 409.019 878.693 397.251L875.93 394.737C874.95 393.846 874.376 392.575 874.363 391.263C874.342 389.937 874.888 388.652 875.841 387.748C878.548 385.158 881.621 379.764 882.54 375.965C884.777 366.766 890.655 362.284 895.303 362.615C899.605 362.919 902.54 366.828 903.141 373.065C903.224 373.949 906.822 374.764 908.756 375.206C911.926 375.924 914.668 376.546 915.628 378.279C916.001 378.97 916.056 379.743 915.773 380.537C915.227 382.071 914.751 383.328 914.371 384.357C913.694 386.159 913.107 387.706 913.197 388.093C913.3 388.217 914.005 388.542 914.626 388.839C915.296 389.156 916.125 389.543 917.147 390.103C917.9 390.137 918.625 390.296 919.302 390.572C923.107 392.112 924.723 397.002 922.914 401.463C922.002 403.722 920.372 405.49 918.377 406.45L919.15 421.865C919.433 427.486 923.052 432.321 928.363 434.193L933.985 436.168C934.434 436.32 934.758 436.713 934.827 437.183C934.896 437.653 934.696 438.122 934.316 438.405C934.137 438.53 922.327 446.907 906.215 446.914Z" fill="black"/>
<path d="M894.568 418.705C893.974 418.705 893.447 418.286 893.319 417.678C893.177 416.989 893.623 416.314 894.318 416.172C903.6 414.267 907.585 406.728 907.626 406.654C907.95 406.026 908.713 405.783 909.341 406.1C909.97 406.424 910.219 407.188 909.895 407.816C909.72 408.174 905.356 416.509 894.825 418.671C894.744 418.691 894.656 418.705 894.568 418.705Z" fill="black"/>
<path d="M220.613 974.954L219.536 1010.68L198.579 1010.28L194.918 972.355L220.613 974.954Z" fill="white"/>
<path d="M199.741 1009.02L218.297 1009.37L219.301 976.105L196.338 973.781L199.741 1009.02ZM219.535 1011.96C219.528 1011.96 219.519 1011.96 219.511 1011.96L198.554 1011.55C197.907 1011.54 197.371 1011.04 197.308 1010.4L193.647 972.475C193.61 972.096 193.746 971.722 194.017 971.451C194.287 971.181 194.668 971.043 195.046 971.083L220.742 973.683C221.408 973.752 221.91 974.322 221.89 974.995L220.812 1010.71C220.791 1011.4 220.224 1011.96 219.535 1011.96Z" fill="black"/>
<path d="M191.478 1024.99C190.134 1023.89 189.421 1022.18 189.55 1020.45C189.941 1015.23 191.044 1004.14 193.565 1000.19C196.91 994.943 207.621 1003.81 207.621 1003.81C207.621 1003.81 215.289 995.167 219.426 993.603C221.567 992.797 232.691 1001.94 243.62 1013.98C255.597 1027.18 261.163 1031.56 262.969 1042.07C263.816 1047.01 259.804 1051.48 254.8 1051.33C242.611 1050.97 218.334 1047.06 191.478 1024.99Z" fill="white"/>
<path d="M192.289 1024.01C218.881 1045.85 242.892 1049.7 254.837 1050.05C256.891 1050.1 258.825 1049.26 260.173 1047.71C261.483 1046.2 262.042 1044.23 261.711 1042.29C260.255 1033.81 256.379 1029.64 247.888 1020.5C246.303 1018.8 244.569 1016.93 242.675 1014.84C230.87 1001.83 221.589 994.972 219.787 994.833C216.613 996.105 210.631 1002.34 208.576 1004.66C208.117 1005.17 207.337 1005.23 206.806 1004.79C204.938 1003.25 199.405 999.349 196.223 999.849C195.52 999.959 195.018 1000.29 194.641 1000.87C192.953 1003.52 191.561 1010.69 190.824 1020.54C190.724 1021.87 191.273 1023.17 192.289 1024.01ZM255.04 1052.61C254.947 1052.61 254.855 1052.61 254.762 1052.61C242.491 1052.25 217.847 1048.31 190.669 1025.98C189.01 1024.62 188.116 1022.51 188.277 1020.35C188.728 1014.33 189.875 1003.6 192.487 999.498C193.255 998.302 194.409 997.548 195.828 997.324C199.835 996.697 205.241 1000.38 207.476 1002.07C209.602 999.769 215.377 993.769 218.974 992.412C223.083 990.865 239.238 1007.25 244.565 1013.12C246.453 1015.2 248.18 1017.06 249.759 1018.76C258.337 1027.99 262.642 1032.63 264.227 1041.86C264.69 1044.55 263.915 1047.29 262.101 1049.38C260.309 1051.44 257.748 1052.61 255.04 1052.61Z" fill="black"/>
<path d="M252.66 1043.32C244.154 1043.32 219.476 1041.34 196.297 1020.51C195.773 1020.04 195.73 1019.23 196.201 1018.7C196.676 1018.18 197.48 1018.14 198.005 1018.61C225.569 1043.39 255.194 1040.7 255.487 1040.67C256.206 1040.59 256.814 1041.11 256.886 1041.81C256.959 1042.51 256.448 1043.14 255.748 1043.21C255.69 1043.21 254.592 1043.32 252.66 1043.32Z" fill="black"/>
<path d="M132.841 951.308L127.141 995.719L111.241 995.829L108.305 947.121L132.841 951.308Z" fill="white"/>
<path d="M109.677 948.645L112.443 994.546L126.016 994.448L131.418 952.361L109.677 948.645ZM111.241 997.105C110.566 997.105 110.007 996.582 109.966 995.903L107.031 947.195C107.007 946.804 107.163 946.425 107.453 946.166C107.743 945.907 108.136 945.798 108.52 945.861L133.055 950.048C133.731 950.163 134.195 950.79 134.108 951.469L128.408 995.88C128.325 996.513 127.788 996.99 127.15 996.996L111.25 997.105C111.247 997.105 111.244 997.105 111.241 997.105Z" fill="black"/>
<path d="M133.456 1007.3L135.692 982.892C135.692 982.892 131.551 975.001 124.24 980.338C124.24 980.338 120.546 973.867 112.025 977.307C108.808 978.601 106.134 980.96 104.216 983.847C98.9771 991.745 85.274 1012.7 78.1065 1026.45C75.7027 1031.05 76.9596 1039.16 83.8758 1040.15C93.9199 1041.59 100.816 1038.81 105.286 1036.4C112.272 1032.64 124.874 1019.84 130.392 1014.05C132.147 1012.2 133.224 1009.83 133.456 1007.3Z" fill="white"/>
<path d="M116.748 977.583C115.527 977.583 114.116 977.836 112.503 978.492C109.644 979.642 107.145 981.742 105.279 984.555C99.8134 992.791 86.3324 1013.43 79.2385 1027.03C77.9454 1029.51 77.9328 1032.98 79.2062 1035.47C79.8953 1036.81 81.2971 1038.49 84.0569 1038.89C93.9176 1040.29 100.549 1037.5 104.682 1035.28C111.56 1031.57 124.307 1018.58 129.468 1013.17C131.014 1011.54 131.979 1009.41 132.184 1007.18L134.382 983.186C133.893 982.415 132.423 980.39 130.208 979.878C128.605 979.516 126.849 980.011 124.994 981.368C124.701 981.581 124.331 981.661 123.973 981.587C123.619 981.512 123.311 981.287 123.132 980.971C123.032 980.799 121.083 977.583 116.748 977.583ZM89.2964 1041.82C87.5484 1041.82 85.683 1041.69 83.6951 1041.41C80.6983 1040.99 78.2986 1039.28 76.9342 1036.63C75.2794 1033.41 75.2955 1029.08 76.9739 1025.85C84.1242 1012.14 97.6627 991.417 103.152 983.14C105.304 979.896 108.207 977.468 111.547 976.122C118.675 973.24 122.879 976.703 124.533 978.607C126.666 977.336 128.772 976.927 130.801 977.399C134.685 978.302 136.737 982.139 136.822 982.3C136.937 982.518 136.986 982.766 136.963 983.007L134.727 1007.41C134.471 1010.22 133.258 1012.89 131.316 1014.93C124.801 1021.76 112.835 1033.79 105.892 1037.52C102.276 1039.47 96.8821 1041.82 89.2964 1041.82Z" fill="black"/>
<path d="M91.8291 1032.83C88.5573 1032.83 85.3799 1031.86 82.891 1029.16C82.4142 1028.64 82.447 1027.83 82.967 1027.35C83.4846 1026.88 84.2934 1026.91 84.7714 1027.42C90.5349 1033.69 102.058 1027.8 105.453 1025.84C110.676 1022.83 119.165 1014.27 125.368 1007.62C125.849 1007.11 126.659 1007.08 127.172 1007.56C127.688 1008.04 127.717 1008.85 127.236 1009.36C120.915 1016.14 112.225 1024.88 106.727 1028.05C103.617 1029.85 97.5765 1032.83 91.8291 1032.83Z" fill="black"/>
<path d="M122.919 994.759C122.877 994.759 122.833 994.753 122.789 994.753C122.089 994.678 121.577 994.051 121.647 993.35L122.97 980.206C123.041 979.51 123.659 978.998 124.369 979.067C125.07 979.136 125.581 979.763 125.511 980.465L124.188 993.608C124.122 994.264 123.567 994.759 122.919 994.759Z" fill="black"/>
<path d="M218.413 978.63C223.189 978.446 227.171 974.92 227.89 970.192C231.387 947.213 241.431 874.64 240.117 807.151C238.53 725.628 213.963 606.965 213.963 606.965C213.963 606.965 175.197 601.259 146.463 602.202C117.73 603.145 106.907 598.089 106.907 598.089C106.907 598.089 83.2936 620.183 80.4142 665.911C77.6665 709.551 101.712 946.626 101.712 946.626C101.712 946.626 102.616 955.392 108.638 957.365C113.824 959.062 121.077 961.524 129.9 961.943C134.803 962.179 138.971 958.371 139.296 953.477L155.602 708.148C155.673 707.084 157.196 706.952 157.435 707.998C160.949 723.385 170.075 764.592 174.041 794.457C176.29 811.396 180.468 825.253 183.738 834.22C186.659 842.239 187.816 850.78 187.218 859.288C185.671 881.364 183.802 926.287 189.983 967.638C190.559 971.498 193.305 974.667 197.049 975.754C202.185 977.25 210.018 978.941 218.413 978.63Z" fill="#448582"/>
<path d="M123.71 836.671C118.758 836.671 110.595 835.722 104.587 830.246C104.066 829.768 104.029 828.963 104.504 828.44C104.979 827.916 105.785 827.882 106.308 828.359C114.414 835.745 127.55 833.898 127.684 833.875C128.388 833.772 129.03 834.255 129.134 834.951C129.238 835.647 128.759 836.297 128.061 836.406C127.865 836.435 126.19 836.671 123.71 836.671Z" fill="black"/>
<path d="M172.962 348.217C161.181 334.653 143.151 331.329 129.422 334.63C112.048 338.806 102.902 353.451 96.4531 363.776C85.0509 382.027 90.0764 388.918 81.2322 399.45C65.5677 418.109 42.2974 405.437 23.4942 418.84C-5.19107 439.288 -11.2146 511.481 25.8737 540.172C50.6073 559.303 85.3419 549.738 94.7919 547.138C123.474 539.24 159.576 515.847 165.665 482.831C170.7 455.532 153.323 432.155 169.153 409.625C173.184 403.89 176.424 402.4 179.509 395.164C184.518 383.419 186.177 363.425 172.962 348.217Z" fill="#152E37"/>
<path d="M134.996 352.046C141.575 347.031 137.982 331.551 134.127 323.137C132.683 319.984 126.219 305.881 117.141 306.141C107.818 306.411 98.4276 321.759 101.37 334.237C105.049 349.838 127.287 357.918 134.996 352.046Z" fill="#152E37"/>
<path d="M81.9276 445.368C81.9276 445.368 107.982 436.153 138.966 433.007C154.273 431.454 170.782 432.34 185.948 434.663C231.537 441.641 183.593 612.705 183.593 612.705L126.958 616.174C126.958 616.174 87.9321 510.849 81.9276 445.368Z" fill="white"/>
<path d="M83.2925 446.254C89.2079 507.702 124.068 604.531 127.83 614.845L182.604 611.491C185.775 599.867 218.549 477.01 197.099 443.746C194.168 439.202 190.456 436.642 185.754 435.923C169.355 433.415 153.221 432.846 139.094 434.278C111.876 437.045 88.2243 444.603 83.2925 446.254ZM126.959 617.45C126.428 617.45 125.948 617.123 125.762 616.616C125.371 615.564 86.6068 510.383 80.6552 445.489C80.6017 444.908 80.9503 444.361 81.5014 444.166C81.7636 444.074 108.057 434.865 138.838 431.736C153.169 430.28 169.531 430.856 186.14 433.398C191.531 434.226 195.94 437.24 199.245 442.365C222.274 478.074 186.363 607.557 184.822 613.05C184.676 613.574 184.214 613.947 183.671 613.982L127.038 617.45C127.011 617.45 126.984 617.45 126.959 617.45Z" fill="black"/>
<path d="M138.656 521.087C131.945 498.436 105.514 462.451 89.8406 442.394C81.0941 445.443 75.4129 447.974 75.4129 447.974L79.9144 510.475C79.9144 510.475 54.8063 781.981 63.4337 791.644C68.0762 796.844 79.9034 800.778 98.5163 798.725C119.623 796.401 128.038 792.306 138.253 789.527C140.591 728.32 146.691 548.208 138.656 521.087Z" fill="white"/>
<path d="M223.743 556.151C220.231 539.482 216.783 522.629 213.404 505.603C208.756 482.175 200.193 436.101 200.193 436.101C200.193 436.101 192.441 434.163 180.141 432.777C174.444 452.742 161.322 506.345 164.135 568.409C165.713 603.232 179.417 740.313 184.273 788.285C213.385 791.656 244.168 798.725 252.702 792.858C259.992 787.848 234.558 600.195 223.743 556.151Z" fill="white"/>
<path d="M318.467 401.986C318.467 401.986 327.739 379.715 330.583 373.819C333.817 367.112 321.247 371.133 312.368 392.104L318.467 401.986Z" fill="white"/>
<path d="M313.803 391.995L318.247 399.202C320.7 393.335 327.117 378.064 329.433 373.267C329.708 372.691 329.799 372.312 329.82 372.105C329.811 372.105 329.8 372.105 329.789 372.105C327.774 372.105 320.058 377.575 313.803 391.995ZM318.467 403.263C318.026 403.263 317.614 403.039 317.381 402.659L311.282 392.772C311.064 392.421 311.031 391.984 311.192 391.604C317.674 376.304 325.864 369.982 329.504 369.591C330.928 369.442 331.65 370.115 331.945 370.534C332.591 371.449 332.519 372.743 331.732 374.377C328.937 380.169 319.739 402.257 319.645 402.475C319.462 402.918 319.046 403.223 318.568 403.258C318.534 403.263 318.5 403.263 318.467 403.263Z" fill="black"/>
<path d="M318.43 398.351C318.901 399.133 319.382 399.91 319.903 400.663C320.783 401.929 322.649 405.121 321.616 408.164C320.61 411.132 313.497 420.6 310.112 425.011C308.955 426.518 307.868 459.472 307.868 459.472L284.126 458.356C284.126 458.356 294.143 431.275 293.152 428.008C291.316 421.957 289.867 415.946 289.38 411.696C287.937 399.104 294.978 389.596 297.568 388.826C300.159 388.055 303.036 392.386 303.036 392.386C303.036 392.386 306.453 385.904 310.648 386.617C312.848 386.991 312.918 389.303 314.033 391.052L318.43 398.351Z" fill="white"/>
<path d="M285.926 457.165L306.635 458.132C307.142 443.182 307.969 425.708 309.1 424.235C315.516 415.872 319.743 409.711 320.406 407.756C321.255 405.253 319.603 402.47 318.854 401.388C318.284 400.566 317.767 399.726 317.336 399.007L312.94 391.708C312.559 391.115 312.283 390.448 312.039 389.861C311.472 388.498 311.203 388.009 310.434 387.877C307.747 387.417 304.999 391.403 304.164 392.979C303.953 393.376 303.549 393.634 303.1 393.657C302.635 393.675 302.222 393.468 301.973 393.094C301.018 391.661 299.065 389.712 297.932 390.051C295.914 390.649 289.287 399.663 290.648 411.552C291.101 415.498 292.424 421.215 294.374 427.64C295.333 430.804 288.786 449.337 285.926 457.165ZM307.868 460.749C307.849 460.749 307.829 460.749 307.809 460.743L284.067 459.633C283.66 459.616 283.286 459.403 283.061 459.063C282.837 458.724 282.787 458.298 282.929 457.913C287.72 444.96 292.396 430.367 291.927 428.371C289.937 421.814 288.581 415.941 288.112 411.845C286.627 398.886 293.697 388.647 297.203 387.601C299.471 386.933 301.626 388.734 302.913 390.166C304.375 388.067 307.294 384.748 310.862 385.357C313.089 385.737 313.814 387.48 314.397 388.883C314.62 389.418 314.832 389.924 315.11 390.362L319.524 397.69C319.524 397.69 319.524 397.69 319.526 397.69C319.934 398.374 320.425 399.174 320.952 399.933C321.922 401.331 324.047 404.972 322.825 408.572C321.844 411.471 315.978 419.461 311.198 425.696C310.522 427.692 309.64 444.517 309.144 459.512C309.133 459.851 308.986 460.179 308.735 460.409C308.499 460.628 308.189 460.749 307.868 460.749Z" fill="black"/>
<path d="M306.908 416.286C304.685 416.286 301.782 414.756 299.573 410.373C295.908 403.096 301.878 391.84 302.134 391.368C302.467 390.747 303.237 390.511 303.864 390.845C304.485 391.178 304.716 391.955 304.383 392.576C304.328 392.68 298.787 403.137 301.855 409.222C303.574 412.633 305.781 413.939 307.228 413.709C308.108 413.565 308.711 412.84 308.882 411.713C309.443 408.032 307.729 405.317 307.711 405.288C307.332 404.701 307.5 403.907 308.088 403.528C308.678 403.142 309.465 403.304 309.85 403.896C309.944 404.034 312.12 407.416 311.406 412.098C311.067 414.33 309.619 415.912 307.629 416.228C307.399 416.263 307.158 416.286 306.908 416.286Z" fill="black"/>
<path d="M285.707 440.369C294.955 442.423 305.214 445.621 312.849 449.854C315.12 461.157 314.446 481.099 305.22 506.023C301.393 516.359 296.888 528.53 286.856 535.013C267.664 547.408 228.269 540.54 196.777 511.251C196.476 487.662 200.493 459.69 200.193 436.101C208.412 438.897 215.739 443.832 221.42 450.395L231.362 461.882C240.284 477.987 252.255 489.054 261.443 487.024C268.948 485.373 273.054 474.634 281.267 453.162C285.502 442.089 283.887 447.243 285.707 440.369Z" fill="white"/>
<path d="M185.441 787.134C192.793 788.009 200.198 789.096 207.371 790.149C227.292 793.076 246.105 795.843 251.979 791.805C254.062 789.13 252.318 755.884 243.551 687.786C236.395 632.21 227.542 576.979 222.504 556.456C220.648 547.656 218.672 538.096 216.452 527.19C216.351 526.695 216.55 526.189 216.962 525.896C217.372 525.603 217.916 525.58 218.353 525.838C243.429 540.684 270.681 543.934 286.163 533.937C295.838 527.691 300.186 515.945 304.023 505.58C314.908 476.176 312.825 456.757 311.708 450.689C305.386 447.278 296.546 444.172 286.628 441.888C286.474 442.48 286.354 442.952 286.255 443.337C285.793 445.144 285.771 445.213 285.055 446.99C284.599 448.123 283.842 450.004 282.459 453.616C274.091 475.497 269.893 486.472 261.718 488.272C252.429 490.32 240.109 480.254 230.31 462.618L220.456 451.235C214.926 444.844 207.778 440.03 199.781 437.309C199.764 437.309 192.484 435.515 181.074 434.169C175.204 455.008 162.657 507.622 165.41 568.346C166.994 603.272 181.003 743.275 185.441 787.134ZM241.002 796.372C232.138 796.372 220.119 794.606 207 792.679C199.514 791.575 191.774 790.436 184.126 789.556C183.531 789.487 183.064 789.01 183.003 788.411C178.683 745.732 164.458 603.732 162.859 568.466C160.043 506.322 173.148 452.627 178.913 432.426C179.085 431.828 179.646 431.437 180.284 431.511C192.527 432.892 200.423 434.842 200.502 434.859C209.029 437.758 216.562 442.831 222.386 449.561L232.327 461.048C232.385 461.117 232.436 461.186 232.479 461.266C241.586 477.7 253.112 487.553 261.168 485.781C267.999 484.274 272.033 473.731 280.068 452.719C281.466 449.066 282.227 447.174 282.686 446.035C283.352 444.384 283.352 444.384 283.781 442.705C283.939 442.083 284.152 441.249 284.472 440.042C284.648 439.38 285.312 438.977 285.983 439.127C292.304 440.525 304.28 443.642 313.467 448.739C313.795 448.923 314.026 449.239 314.1 449.607C315.203 455.095 317.91 475.416 306.417 506.466C302.64 516.675 297.938 529.376 287.549 536.083C271.787 546.264 244.725 543.555 219.519 529.456C221.511 539.212 223.307 547.886 224.992 555.887C230.111 576.732 239.068 632.722 246.278 688.977C249.907 717.288 252.593 741.791 254.047 759.853C256.612 791.719 254.539 793.145 253.426 793.91C250.849 795.682 246.541 796.372 241.002 796.372Z" fill="black"/>
<path d="M203.766 755.798C203.574 755.798 203.38 755.757 203.196 755.665C190.848 749.488 188.193 707.492 188.086 705.709C188.061 705.301 188.229 704.91 188.538 704.651C188.847 704.392 189.263 704.294 189.654 704.386C207.894 708.7 225.998 711.852 234.899 705.732C235.479 705.335 236.274 705.479 236.674 706.066C237.073 706.647 236.926 707.441 236.345 707.837C227.408 713.981 211.655 712.123 190.751 707.268C191.698 720.101 195.592 749.005 204.339 753.376C204.97 753.692 205.225 754.463 204.91 755.09C204.686 755.539 204.235 755.798 203.766 755.798Z" fill="black"/>
<path d="M111.845 760.347C111.322 760.347 110.832 760.025 110.644 759.502C110.405 758.84 110.75 758.11 111.413 757.868C119.715 754.883 121.179 722.189 121.056 707.895C99.734 712.916 88.0287 715.125 79.2771 709.109C78.6961 708.712 78.5489 707.918 78.9481 707.337C79.3484 706.756 80.1439 706.606 80.7237 707.003C88.8104 712.566 99.8336 710.288 122.017 705.042C122.392 704.956 122.788 705.036 123.095 705.278C123.399 705.514 123.581 705.876 123.588 706.261C123.683 711.34 124.172 755.993 112.279 760.273C112.135 760.324 111.989 760.347 111.845 760.347Z" fill="black"/>
<path d="M53.3579 612.929L69.3433 590.928C70.5788 589.231 70.5599 586.936 69.3134 585.245C61.313 574.38 37.4094 533.074 104.834 497.97L89.8406 442.394C89.8406 442.394 1.42657 468.623 2.65807 540.184C2.71789 543.687 5.74287 559.137 12.3536 572.798C24.3644 597.618 39.3777 608.748 46.6632 614.005C48.8104 615.552 51.8014 615.075 53.3579 612.929Z" fill="white"/>
<path d="M79.525 513.449C79.7234 513.449 79.923 513.495 80.1065 513.587C80.5712 513.822 80.8445 514.323 80.7973 514.841C80.4223 518.959 80.1226 526.431 79.7447 535.893C79.0912 552.246 78.1962 574.638 76.2095 598.825C75.0764 612.619 73.8351 627.166 72.5846 641.845C67.1018 706.129 60.2793 786.139 64.3874 790.798C68.4759 795.377 79.548 799.536 98.3771 797.459C114.174 795.716 122.821 792.973 130.451 790.551C132.684 789.844 134.807 789.171 137.012 788.549C139.186 731.444 145.429 548.444 137.431 521.45C130.829 499.172 104.741 463.584 89.3787 443.878C85.1769 445.241 65.6402 451.983 46.4665 465.534C26.7181 479.5 3.30924 503.779 3.93506 540.161C3.99488 543.675 7.02732 558.855 13.5029 572.24C25.5873 597.215 40.8802 608.253 47.4092 612.97C48.9795 614.103 51.1837 613.746 52.3249 612.182L68.3097 590.18C69.2168 588.932 69.2064 587.252 68.285 586.004C61.6334 576.968 42.7231 545.073 78.6875 513.759C78.9244 513.558 79.2235 513.449 79.525 513.449ZM88.8691 800.554C76.6783 800.554 67.1432 797.718 62.4818 792.495C57.963 787.434 62.3236 732.122 70.0393 641.626C71.2915 626.953 72.5323 612.406 73.6637 598.618C75.6458 574.483 76.5397 552.119 77.1937 535.789C77.4905 528.369 77.7384 522.163 78.0139 517.809C46.8933 546.988 64.1677 576.105 70.3413 584.486C71.9266 586.637 71.9387 589.53 70.3753 591.681L54.3899 613.683C52.4273 616.381 48.6264 616.996 45.9154 615.04C39.2282 610.214 23.5701 598.906 11.2039 573.35C4.55972 559.62 1.44328 543.871 1.38116 540.207C0.869807 510.504 15.9705 483.947 45.0503 463.412C66.9183 447.968 89.2545 441.238 89.4776 441.169C89.9798 441.019 90.5222 441.198 90.8466 441.612C106.239 461.307 133.079 497.774 139.88 520.725C147.81 547.489 142.276 717.656 139.529 789.579C139.507 790.137 139.127 790.614 138.588 790.764C136.105 791.437 133.734 792.19 131.223 792.984C123.481 795.446 114.705 798.23 98.6567 799.996C95.2469 800.37 91.9717 800.554 88.8691 800.554Z" fill="black"/>
<path d="M67.3905 593.89L75.1189 604.589C77.3018 607.609 81.6894 607.914 84.2663 605.222L88.1075 601.207C90.7068 598.486 94.7539 594.58 98.5117 594.448C98.5117 594.448 128.184 594.805 123.938 611.198C122.869 612.906 121.03 613.976 119.015 614.051C115.666 614.178 110.454 614.459 107.258 615.104C102.252 616.104 102.252 616.104 102.252 616.104C102.252 616.104 96.9817 618.003 93.1796 620.856C89.3781 623.714 83.6405 626.567 76.7709 626.326C72.9188 626.193 53.8589 612.578 53.8589 612.578L67.3905 593.89Z" fill="white"/>
<path d="M55.6496 612.279C63.4234 617.773 74.5288 624.974 76.8146 625.049C84.0604 625.302 89.6795 621.891 92.4129 619.838C96.3237 616.898 101.598 614.983 101.82 614.902C101.88 614.879 101.94 614.862 102.002 614.851L107.007 613.85C110.208 613.206 115.279 612.912 118.968 612.774C120.492 612.722 121.892 611.94 122.752 610.68C123.459 607.77 123.027 605.343 121.432 603.255C115.901 596.019 98.6705 595.731 98.4968 595.725C95.0013 595.846 90.6631 600.379 89.0296 602.087L85.189 606.102C83.6992 607.661 81.6129 608.472 79.4582 608.322C77.3058 608.173 75.3467 607.085 74.0836 605.337L67.3899 596.07L55.6496 612.279ZM77.5653 627.614C77.288 627.614 77.0073 627.614 76.7272 627.603C72.6944 627.465 56.3513 615.926 53.117 613.614C52.8397 613.418 52.6533 613.119 52.5981 612.78C52.5435 612.446 52.6257 612.101 52.8248 611.825L66.3569 593.143C66.5968 592.809 66.9821 592.613 67.3911 592.613C67.3911 592.613 67.3911 592.613 67.3923 592.613C67.8012 592.613 68.1866 592.815 68.4259 593.143L76.1537 603.841C76.9717 604.974 78.24 605.676 79.6337 605.774C81.0268 605.866 82.3797 605.343 83.3437 604.336L87.1843 600.321C90.299 597.065 94.3968 593.315 98.468 593.177C99.286 593.183 117.183 593.493 123.463 601.707C125.57 604.462 126.146 607.764 125.173 611.52C125.141 611.647 125.09 611.768 125.02 611.877C123.724 613.948 121.497 615.242 119.062 615.328C116.119 615.437 110.704 615.713 107.508 616.352L102.601 617.335C101.921 617.589 97.29 619.366 93.9464 621.88C91.0497 624.054 85.1481 627.614 77.5653 627.614Z" fill="black"/>
<path d="M126.957 374.21C128.026 374.676 129.231 374.072 129.531 372.944C130.964 367.543 136.202 358.841 142.85 356.384C151.371 353.238 161.802 354.682 164.869 361.13C167.545 366.75 166.129 370.534 173.507 377.322C174.214 377.972 173.834 379.208 173.149 379.881L169.552 383.793C168.783 384.546 168.334 386.807 168.366 387.894C168.466 391.236 168.949 398.311 167.923 399.363C165.924 401.417 154.733 402.147 154.733 402.147L149.74 433.904C149.55 435.112 150.392 436.234 151.593 436.383L154.338 436.941C158.27 437.741 159.364 442.877 156.063 445.161C150.994 448.664 142.487 452.426 128.855 453.242C120.852 453.72 113.793 452.38 108.54 450.815C104.693 449.665 103.884 444.574 107.159 442.256C116.387 435.722 130.008 421.601 129.656 395.348C129.644 394.474 129.166 393.675 128.413 393.243C125.524 391.604 117.683 386.674 118.169 380.6C118.686 374.141 123.275 372.594 126.957 374.21Z" fill="white"/>
<path d="M124.227 374.889C123.431 374.889 122.675 375.09 122.016 375.481C120.534 376.367 119.644 378.173 119.442 380.704C119.03 385.858 126.02 390.413 129.044 392.139C130.192 392.789 130.916 394.014 130.933 395.331C131.299 422.607 116.658 437.091 107.898 443.297C106.76 444.102 106.214 445.408 106.443 446.789C106.667 448.152 107.587 449.199 108.904 449.59C115.517 451.557 122.208 452.356 128.779 451.965C142.521 451.149 150.806 447.243 155.337 444.114C156.441 443.349 156.939 442.101 156.668 440.778C156.455 439.737 155.664 438.511 154.084 438.189L151.339 437.631C150.513 437.534 149.694 437.062 149.132 436.314C148.564 435.566 148.332 434.64 148.478 433.709L153.471 401.946C153.565 401.359 154.053 400.911 154.649 400.87C159.797 400.537 165.987 399.519 167.009 398.472C167.476 397.592 167.253 392.081 167.157 389.729C167.13 389.061 167.105 388.452 167.089 387.928C167.055 386.778 167.492 384.023 168.659 382.884L172.208 379.013C172.521 378.708 172.634 378.317 172.606 378.202C167.286 373.33 166.294 369.764 165.333 366.318C164.905 364.777 164.499 363.321 163.716 361.676C160.899 355.757 150.881 354.78 143.293 357.581C136.968 359.922 132.078 368.326 130.764 373.272C130.524 374.181 129.907 374.935 129.07 375.331C128.245 375.734 127.29 375.751 126.445 375.377C125.703 375.05 124.949 374.889 124.227 374.889ZM125.523 454.617C119.755 454.617 113.936 453.754 108.176 452.034C105.934 451.367 104.304 449.515 103.922 447.203C103.538 444.873 104.496 442.578 106.421 441.215C114.772 435.296 128.73 421.474 128.38 395.366C128.374 394.946 128.145 394.56 127.782 394.353C123.497 391.92 116.386 386.876 116.896 380.503C117.239 376.217 119.157 374.216 120.705 373.29C122.676 372.11 125.146 372.018 127.47 373.036C127.678 373.128 127.852 373.088 127.961 373.031C128.057 372.99 128.228 372.87 128.296 372.617C129.789 366.991 135.155 357.868 142.408 355.188C151.017 352.007 162.494 353.163 166.023 360.578C166.901 362.424 167.355 364.052 167.793 365.634C168.736 369.022 169.552 371.944 174.373 376.384C174.87 376.844 175.151 377.488 175.162 378.196C175.176 379.111 174.746 380.1 174.041 380.79L170.492 384.655C170.071 385.075 169.613 386.87 169.643 387.854C169.658 388.366 169.682 388.969 169.709 389.625C169.976 396.217 169.914 399.15 168.839 400.255C166.887 402.257 159.338 403.073 155.836 403.349L151.002 434.105C150.963 434.347 151.023 434.583 151.17 434.778C151.312 434.968 151.517 435.089 151.749 435.112L154.592 435.687C156.935 436.165 158.688 437.919 159.169 440.266C159.646 442.59 158.734 444.867 156.789 446.213C151.991 449.527 143.262 453.662 128.932 454.514C127.798 454.583 126.661 454.617 125.523 454.617Z" fill="black"/>
<path d="M179.521 86.4136C179.194 86.4136 178.868 86.2847 178.619 86.0341L173.054 80.4777C172.555 79.9765 172.555 79.1674 173.054 78.6733C173.554 78.1721 174.361 78.1721 174.86 78.6733L180.425 84.2297C180.923 84.7309 180.923 85.5329 180.425 86.0341C180.175 86.2847 179.848 86.4136 179.521 86.4136Z" fill="black"/>
<path d="M198.99 105.874C198.664 105.874 198.337 105.747 198.087 105.501L192.525 99.9386C192.026 99.4457 192.026 98.6359 192.525 98.136C193.024 97.6361 193.832 97.6361 194.331 98.136L199.893 103.691C200.392 104.191 200.392 105.001 199.893 105.501C199.644 105.747 199.317 105.874 198.99 105.874Z" fill="black"/>
<path d="M173.955 105.874C173.628 105.874 173.302 105.747 173.052 105.501C172.553 105.001 172.553 104.191 173.052 103.691L178.616 98.136C179.115 97.6361 179.923 97.6361 180.421 98.136C180.921 98.6359 180.921 99.4457 180.421 99.9386L174.858 105.501C174.608 105.747 174.282 105.874 173.955 105.874Z" fill="black"/>
<path d="M193.43 86.4136C193.103 86.4136 192.777 86.2847 192.528 86.0341C192.029 85.54 192.029 84.7309 192.528 84.2297L198.09 78.6733C198.589 78.1721 199.397 78.1721 199.896 78.6733C200.395 79.1674 200.395 79.9765 199.896 80.4777L194.333 86.0341C194.084 86.2847 193.757 86.4136 193.43 86.4136Z" fill="black"/>
<path d="M137.141 122.552C131.363 122.552 126.662 127.246 126.662 133.018C126.662 138.789 131.363 143.491 137.141 143.491C142.918 143.491 147.619 138.789 147.619 133.018C147.619 127.246 142.918 122.552 137.141 122.552ZM137.141 146.045C129.954 146.045 124.108 140.198 124.108 133.018C124.108 125.838 129.954 119.997 137.141 119.997C144.327 119.997 150.173 125.838 150.173 133.018C150.173 140.198 144.327 146.045 137.141 146.045Z" fill="black"/>
<path d="M156.574 168.551C153.01 168.551 150.112 171.445 150.112 175.007C150.112 178.563 153.01 181.463 156.574 181.463C160.137 181.463 163.037 178.563 163.037 175.007C163.037 171.445 160.137 168.551 156.574 168.551ZM156.574 184.012C151.602 184.012 147.558 179.973 147.558 175.007C147.558 170.034 151.602 165.995 156.574 165.995C161.545 165.995 165.59 170.034 165.59 175.007C165.59 179.973 161.545 184.012 156.574 184.012Z" fill="black"/>
<path d="M751.544 864.014C751.544 868.288 748.081 871.751 743.803 871.751C739.53 871.751 736.067 868.288 736.067 864.014C736.067 859.746 739.53 856.284 743.803 856.284C748.081 856.284 751.544 859.746 751.544 864.014Z" fill="black"/>
<path d="M775.458 900.546C775.125 900.546 774.805 900.419 774.555 900.172L768.992 894.609C768.488 894.115 768.488 893.303 768.992 892.803C769.491 892.308 770.293 892.308 770.797 892.803L776.36 898.365C776.859 898.866 776.859 899.671 776.36 900.172C776.111 900.419 775.784 900.546 775.458 900.546Z" fill="black"/>
<path d="M794.918 920.001C794.597 920.001 794.27 919.88 794.015 919.627L788.456 914.071C787.959 913.57 787.959 912.765 788.456 912.265C788.952 911.764 789.758 911.764 790.26 912.265L795.82 917.821C796.323 918.322 796.323 919.126 795.82 919.627C795.578 919.88 795.245 920.001 794.918 920.001Z" fill="black"/>
<path d="M769.895 919.999C769.562 919.999 769.236 919.878 768.992 919.625C768.488 919.125 768.488 918.319 768.992 917.819L774.555 912.263C775.054 911.762 775.855 911.762 776.36 912.263C776.859 912.763 776.859 913.568 776.36 914.069L770.797 919.625C770.542 919.878 770.221 919.999 769.895 919.999Z" fill="black"/>
<path d="M789.358 900.548C789.031 900.548 788.71 900.421 788.456 900.174C787.959 899.673 787.959 898.868 788.456 898.368L794.015 892.806C794.518 892.311 795.329 892.311 795.82 892.806C796.323 893.306 796.323 894.117 795.82 894.612L790.26 900.174C790.012 900.421 789.685 900.548 789.358 900.548Z" fill="black"/>
</svg>
