<svg width="611" height="594" viewBox="0 0 611 594" fill="none" xmlns="http://www.w3.org/2000/svg">
<path d="M293.458 182.72C293.458 182.72 257.106 203.754 249.468 202.518C241.837 201.282 227.759 165.278 205.472 173.743C182.689 182.4 185.612 209.951 220.261 224.525C220.261 224.525 199.489 263.106 223.251 269.046C245.318 274.564 255.622 251.882 256.321 243.123C257.656 226.285 312.588 223.312 312.588 223.312L293.458 182.72Z" fill="white"/>
<path d="M212.21 173.229C210.136 173.229 207.982 173.613 205.744 174.461C196.882 177.828 191.721 184.257 191.583 192.099C191.418 201.472 198.944 214.731 220.557 223.821C220.756 223.906 220.911 224.067 220.983 224.274C221.054 224.474 221.037 224.701 220.935 224.888C220.81 225.122 208.491 248.282 214.074 260.914C215.738 264.682 218.888 267.169 223.436 268.305C230.668 270.112 237.186 268.979 242.81 264.935C250.862 259.146 255.11 248.66 255.553 243.062C256.835 226.932 303.277 223.154 311.412 222.618L293.12 183.8C287.807 186.843 256.641 204.454 249.348 203.275C246.572 202.825 243.375 198.709 239.331 193.498C232.524 184.733 223.589 173.229 212.21 173.229ZM229.926 270.677C227.713 270.677 225.425 270.382 223.064 269.79C218.033 268.535 214.536 265.753 212.672 261.535C207.302 249.379 217.049 229.103 219.198 224.908C200.978 217.03 189.832 204.5 190.051 192.073C190.2 183.571 195.721 176.629 205.199 173.028C220.782 167.108 232.199 181.82 240.54 192.559C244.226 197.309 247.41 201.409 249.591 201.761C255.636 202.726 283.028 187.871 293.074 182.059C293.261 181.951 293.481 181.925 293.688 181.99C293.892 182.053 294.062 182.201 294.151 182.394L313.278 222.986C313.386 223.219 313.373 223.486 313.241 223.706C313.11 223.926 312.88 224.064 312.627 224.077C312.082 224.106 258.349 227.204 257.081 243.184C256.615 249.077 252.153 260.106 243.704 266.177C239.542 269.173 234.926 270.677 229.926 270.677Z" fill="black"/>
<path d="M226.548 245.483C226.402 245.483 226.256 245.444 226.126 245.356C225.772 245.126 225.675 244.649 225.909 244.295C225.951 244.23 230.192 237.684 228.232 232.06C227.155 228.981 224.393 226.69 220.022 225.255C219.619 225.122 219.401 224.691 219.533 224.288C219.665 223.886 220.098 223.665 220.5 223.798C225.354 225.392 228.443 228.004 229.68 231.564C231.89 237.908 227.379 244.847 227.187 245.139C227.038 245.363 226.795 245.483 226.548 245.483Z" fill="black"/>
<path d="M275.492 187.63C275.492 187.63 287.094 175.958 335.26 90.8301C354.883 56.1479 403.139 24.1006 455.337 55.4611C507.531 86.8216 536.86 176.936 481.332 224.177C425.804 271.413 341.255 237.743 319.48 233.555C300.574 229.917 289.521 230.396 289.521 230.396L292.939 216.701L280.467 209.575L289.719 196.392L275.492 187.63Z" fill="#448582"/>
<path d="M372.585 167.066C395.86 213.844 440.076 239.147 471.346 223.587C502.613 208.031 515.294 155.599 492.019 108.825C468.744 62.0473 418.324 38.642 387.057 54.2021C355.79 69.7581 349.31 120.292 372.585 167.066Z" fill="white"/>
<path d="M430.005 142.884C435.377 153.206 444.173 159.264 449.652 156.415C455.124 153.566 455.21 142.884 449.836 132.559C444.464 122.237 435.668 116.179 430.193 119.028C424.713 121.881 424.634 132.559 430.005 142.884Z" fill="black"/>
<path d="M407.671 224.871C407.509 224.871 407.351 224.822 407.212 224.717C365.877 193.925 351.758 159.234 347.191 135.556C342.237 109.872 347.153 91.2011 347.202 91.0133C347.315 90.6076 347.735 90.3597 348.145 90.4761C348.554 90.5851 348.795 91.0057 348.682 91.4151C348.633 91.5992 343.803 109.989 348.708 135.346C353.238 158.735 367.222 193.016 408.129 223.492C408.467 223.744 408.538 224.221 408.286 224.563C408.132 224.766 407.903 224.871 407.671 224.871Z" fill="white"/>
<path d="M370.51 330.106C361.764 342.791 351.386 344.966 343.964 339.845C336.542 334.727 334.884 324.254 343.63 311.572C352.376 298.886 368.212 288.794 375.634 293.911C383.059 299.029 379.256 317.423 370.51 330.106Z" fill="black"/>
<path d="M347.242 335.859C347.157 335.859 347.07 335.846 346.985 335.817C346.586 335.678 346.378 335.24 346.518 334.84C353.323 315.434 370.581 299.834 370.757 299.678C371.071 299.396 371.555 299.422 371.837 299.737C372.12 300.051 372.094 300.538 371.779 300.821C371.607 300.973 354.638 316.32 347.962 335.347C347.852 335.661 347.556 335.859 347.242 335.859Z" fill="white"/>
<path d="M403.034 331.692C401.726 347.042 393.795 354.075 384.808 353.312C375.826 352.55 369.192 344.277 370.5 328.924C371.805 313.574 380.554 296.955 389.537 297.718C398.52 298.484 404.338 316.339 403.034 331.692Z" fill="black"/>
<path d="M385.298 348.328C384.935 348.328 384.614 348.071 384.546 347.701C380.833 327.47 388.083 305.367 388.158 305.146C388.291 304.744 388.725 304.527 389.128 304.66C389.527 304.793 389.744 305.228 389.611 305.63C389.54 305.847 382.413 327.59 386.051 347.422C386.129 347.838 385.853 348.24 385.438 348.315C385.389 348.324 385.344 348.328 385.298 348.328Z" fill="white"/>
<path d="M303.953 281.591C303.953 281.591 303.557 234.435 392.059 213.551C480.56 192.667 513.97 203.551 539.807 153.216L549.811 156.28C549.811 156.28 563.799 268.659 466.601 299.494C369.403 330.333 303.953 281.591 303.953 281.591Z" fill="white"/>
<path d="M304.734 281.208C307.158 282.926 323.183 293.826 349.112 301.391C375.009 308.949 416.376 314.624 466.368 298.762C516.252 282.938 536.073 245.086 543.918 216.119C551.816 186.963 549.513 160.741 549.111 156.861L540.194 154.132C521.071 190.969 497.811 194.897 451.716 202.679C434.797 205.54 415.618 208.775 392.237 214.293C346.74 225.028 325.358 242.827 315.429 255.865C305.83 268.475 304.838 279.102 304.734 281.208ZM402.515 310.429C380.828 310.429 362.512 306.904 348.614 302.844C320.297 294.568 303.663 282.332 303.498 282.208C303.305 282.063 303.193 281.838 303.189 281.598C303.185 281.108 303.213 269.378 314.209 254.938C324.29 241.699 345.949 223.644 391.888 212.8C415.313 207.274 434.516 204.031 451.459 201.17C497.289 193.433 520.297 189.548 539.127 152.864C539.295 152.535 539.68 152.37 540.034 152.482L550.038 155.544C550.327 155.633 550.54 155.881 550.576 156.182C550.612 156.463 553.991 184.792 545.399 216.52C540.347 235.177 532.204 251.351 521.2 264.594C507.439 281.156 489.147 293.144 466.834 300.227C443.256 307.702 421.581 310.429 402.515 310.429Z" fill="black"/>
<path d="M365.626 305.398C398.373 311.817 432.244 309.588 466.372 298.762C516.252 282.938 536.073 245.086 543.919 216.119C551.816 186.963 549.513 160.741 549.112 156.861L545.544 155.769C542.45 181.598 533.512 216.649 508.643 238.962C483.661 261.371 451.323 249.516 427.718 240.856C413.643 235.695 401.492 231.236 395.749 235.763C392.117 238.633 390.949 245.142 392.177 255.661C394.067 271.87 391.796 284.455 385.415 293.059C380.852 299.211 374.206 303.354 365.626 305.398ZM402.551 310.506C388.742 310.506 375.073 309.052 361.589 306.132C361.232 306.054 360.979 305.729 360.987 305.362C360.995 304.993 361.268 304.684 361.633 304.626C384.251 301.025 394.015 284.615 390.652 255.841C389.336 244.592 390.66 237.834 394.802 234.559C401.215 229.503 413.142 233.881 428.243 239.415C452.784 248.417 483.324 259.613 507.62 237.822C532.429 215.565 541.165 180.326 544.131 154.681C544.155 154.457 544.284 154.252 544.472 154.128C544.661 154.003 544.898 153.967 545.114 154.035L550.039 155.544C550.328 155.633 550.54 155.881 550.576 156.182C550.612 156.463 553.992 184.792 545.399 216.52C540.347 235.177 532.204 251.35 521.2 264.594C507.439 281.156 489.147 293.143 466.834 300.227C445.235 307.076 423.737 310.506 402.551 310.506Z" fill="black"/>
<path d="M304.734 281.208C307.158 282.926 323.183 293.826 349.112 301.391C375.009 308.949 416.376 314.624 466.368 298.762C516.252 282.938 536.073 245.086 543.918 216.119C551.816 186.963 549.513 160.741 549.111 156.861L540.194 154.132C521.071 190.969 497.811 194.897 451.716 202.679C434.797 205.54 415.618 208.775 392.237 214.293C346.74 225.028 325.358 242.827 315.429 255.865C305.83 268.475 304.838 279.102 304.734 281.208ZM402.515 310.429C380.828 310.429 362.512 306.904 348.614 302.844C320.297 294.568 303.663 282.332 303.498 282.208C303.305 282.063 303.193 281.838 303.189 281.598C303.185 281.108 303.213 269.378 314.209 254.938C324.29 241.699 345.949 223.644 391.888 212.8C415.313 207.274 434.516 204.031 451.459 201.17C497.289 193.433 520.297 189.548 539.127 152.864C539.295 152.535 539.68 152.37 540.034 152.482L550.038 155.544C550.327 155.633 550.54 155.881 550.576 156.182C550.612 156.463 553.991 184.792 545.399 216.52C540.347 235.177 532.204 251.351 521.2 264.594C507.439 281.156 489.147 293.144 466.834 300.227C443.256 307.702 421.581 310.429 402.515 310.429Z" fill="black"/>
<path d="M379.665 301.372C379.554 301.372 379.444 301.35 379.34 301.301C378.957 301.119 378.792 300.665 378.97 300.282C387.538 282.001 386.665 264.639 376.368 248.676C368.676 236.75 358.34 230.146 358.236 230.081C357.88 229.857 357.772 229.383 358 229.026C358.224 228.666 358.701 228.559 359.054 228.786C359.161 228.851 369.783 235.637 377.656 247.845C384.945 259.145 391.328 277.529 380.359 300.931C380.226 301.21 379.95 301.372 379.665 301.372Z" fill="black"/>
<path d="M351.279 255.754C351.279 259.077 348.582 261.771 345.259 261.771C341.939 261.771 339.242 259.077 339.242 255.754C339.242 252.431 341.939 249.737 345.259 249.737C348.582 249.737 351.279 252.431 351.279 255.754Z" fill="black"/>
<path d="M541.703 161.074C541.703 161.074 504.409 145.059 508.124 94.8648C508.124 94.8648 555.06 111.876 546.239 148.852C546.239 148.852 570.344 123.446 608.825 125.564C608.825 125.564 599.108 173.753 541.703 161.074Z" fill="black"/>
<path d="M553.959 157.056C553.489 157.056 553.231 157.043 553.205 157.043C552.779 157.017 552.461 156.655 552.482 156.234C552.508 155.812 552.887 155.484 553.291 155.51C553.567 155.523 580.908 156.724 600.088 130.76C600.342 130.42 600.819 130.351 601.16 130.601C601.5 130.851 601.573 131.333 601.319 131.673C583.444 155.876 558.587 157.056 553.959 157.056Z" fill="white"/>
<path d="M535.291 152.248C535.1 152.248 534.913 152.178 534.764 152.037C513.829 132.25 512.74 106.634 512.732 106.377C512.717 105.955 513.049 105.6 513.474 105.588C513.907 105.537 514.251 105.904 514.266 106.326C514.27 106.576 515.352 131.582 535.818 150.925C536.127 151.218 536.138 151.702 535.846 152.01C535.697 152.166 535.494 152.248 535.291 152.248Z" fill="white"/>
<path d="M416.926 253.29C413.78 253.759 413.204 258.031 416.065 259.423C423.144 262.854 433.177 270.8 442.594 289.16C443.14 290.231 443.69 291.269 444.233 292.273C455.352 312.882 481.219 320.382 501.75 309.119C501.75 309.119 479.679 309.599 469.243 284.74C459.288 261.029 434.728 250.638 416.926 253.29Z" fill="black"/>
<path d="M440.349 272.705C440.238 272.77 440.12 272.798 440.002 272.802C440.113 272.798 440.231 272.773 440.349 272.705ZM482.95 310.785C482.918 310.785 482.885 310.785 482.853 310.781C469.717 309.151 451.605 301.388 439.905 273.651C439.722 273.21 439.529 272.759 439.436 272.569C439.386 272.519 439.346 272.465 439.31 272.397C439.11 272.024 439.246 271.562 439.619 271.362C439.808 271.254 440.045 271.24 440.249 271.308C440.64 271.448 440.704 271.602 441.317 273.056C452.733 300.12 470.308 307.679 483.043 309.259C483.462 309.309 483.76 309.692 483.706 310.115C483.659 310.502 483.33 310.785 482.95 310.785Z" fill="white"/>
<path d="M403.892 357.716C379.35 357.716 354.928 352.232 332.121 341.344C291.91 322.138 261.587 288.427 246.73 246.413C231.877 204.404 234.272 159.122 253.474 118.908C272.679 78.6989 306.39 48.3745 348.402 33.5194C390.411 18.6644 435.698 21.0572 475.907 40.2639C494.895 49.3282 511.735 61.6573 525.967 76.9033C526.255 77.2126 526.238 77.698 525.933 77.9858C525.623 78.2736 525.138 78.2564 524.846 77.9471C510.747 62.8429 494.057 50.6298 475.246 41.6472C393.002 2.37024 294.137 37.3256 254.86 119.57C215.581 201.818 250.537 300.681 332.782 339.958C372.622 358.985 417.492 361.36 459.115 346.64C500.742 331.923 534.146 301.875 553.173 262.033C561.833 243.896 567.082 224.633 568.762 204.786C568.797 204.365 569.162 204.043 569.587 204.091C570.012 204.125 570.322 204.494 570.287 204.915C568.59 224.951 563.298 244.39 554.556 262.695C535.353 302.907 501.639 333.231 459.626 348.087C441.437 354.516 422.63 357.716 403.892 357.716Z" fill="black"/>
<path d="M525.944 305.788C525.746 305.788 525.548 305.71 525.396 305.562L293.263 71.0765C292.964 70.7775 292.968 70.2921 293.271 69.9932C293.57 69.6981 294.055 69.6981 294.354 70.0009L526.487 304.479C526.783 304.782 526.782 305.267 526.48 305.562C526.332 305.714 526.138 305.788 525.944 305.788Z" fill="black"/>
<path d="M25.7427 308.995C29.4238 301.233 37.2478 296.774 45.3177 296.994C45.6997 294.372 46.472 291.76 47.6669 289.238C54.1142 275.644 70.3625 269.848 83.9587 276.296C84.1888 276.403 84.4108 276.523 84.6363 276.637C84.7074 275.459 84.9979 274.274 85.5349 273.142C87.7813 268.404 93.4439 266.385 98.182 268.631C98.291 268.683 98.3971 268.738 98.5032 268.793C98.7749 267.404 99.2214 266.028 99.8555 264.691C103.948 256.059 114.263 252.382 122.894 256.474C123.639 256.828 124.344 257.23 125.013 257.669C125.062 257.561 125.107 257.451 125.158 257.341C129.251 248.712 139.566 245.032 148.197 249.124C152.185 251.016 155.113 254.238 156.708 258.006C160.762 253.336 167.571 251.727 173.432 254.504C177.786 256.568 180.595 260.573 181.323 264.99C183.299 265.292 185.266 265.879 187.165 266.781C193.721 269.89 197.926 275.952 198.942 282.624C200.143 282.949 201.333 283.377 202.497 283.929C208.074 286.574 211.949 291.357 213.607 296.832C214.997 296.819 216.494 297.153 217.834 297.789C222.572 300.035 224.675 305.737 222.429 310.475C222.428 310.478 222.428 310.478 222.427 310.482C228.995 318.335 230.89 329.745 226.162 339.715C222.977 346.436 217.352 351.225 210.881 353.598C205.557 364.696 193.665 370.541 182.08 368.721C170.836 382.441 150.47 404.931 129.677 416.198C123.55 428.001 109.125 432.924 97.0108 427.18C96.522 426.95 96.0456 426.697 95.579 426.437C88.4508 433.674 77.6652 436.465 67.7287 433.213C60.0261 442.913 46.4052 446.408 34.7334 440.872C25.6194 436.549 20.0181 427.823 19.2526 418.444C15.2652 415.913 13.6967 410.746 15.7724 406.369C16.2679 405.327 16.93 404.412 17.7108 403.649C11.6477 398.742 9.48377 390.162 12.9737 382.802C13.0565 382.626 13.146 382.458 13.2336 382.289C10.2221 379.55 9.21085 375.065 11.0457 371.197C12.1556 368.857 14.0992 367.179 16.353 366.352C14.1738 361.811 13.9859 356.359 16.3127 351.453C18.1833 347.51 21.3549 344.602 25.07 342.996C24.9253 339.685 25.5591 336.294 27.0772 333.094C27.4221 332.367 27.8067 331.67 28.2211 331.004C23.4474 324.933 22.2087 316.45 25.7427 308.995Z" fill="#448582"/>
<path d="M197.702 335.45C197.702 335.45 176.12 375.847 189.144 390.052C202.168 404.253 269.096 465.636 269.096 465.636L227.512 529.266C227.512 529.266 179.846 438.23 148.69 427.109C117.534 415.987 67.853 417.743 67.853 417.743L72.3415 408.28C72.3415 408.28 119.198 413.875 119.195 405.72C119.193 397.564 96.4757 385.557 80.5724 380.897C80.4715 368.088 88.6222 351.761 88.6222 351.761C88.6222 351.761 127.339 397.72 130.582 385.674C133.824 373.627 111.652 339.65 111.652 339.65L125.05 336.534C125.05 336.534 145.932 394.968 158.189 384.749C170.445 374.526 143.108 340.156 141.871 336.69C146.455 333.101 161.094 356.918 161.364 345.933C161.634 334.944 160.064 323.498 160.064 323.498L182.144 321.207C182.144 321.207 167.586 357.116 174.114 358.975C180.642 360.838 190.314 330.021 190.314 330.021L197.702 335.45Z" fill="white"/>
<path d="M75.1328 416.886C90.1615 416.886 125.117 417.879 148.947 426.385C178.488 436.932 221.695 516.677 227.58 527.757L268.1 465.76C262.041 460.197 200.896 404.003 188.579 390.571C176.054 376.912 193.992 340.932 196.717 335.678L190.721 331.271C188.476 338.241 180.419 361.584 173.904 359.715C173.177 359.507 172.617 359.011 172.24 358.238C169.338 352.29 178.501 328.304 180.961 322.103L160.923 324.18C161.266 326.961 162.358 336.671 162.129 345.952C162.112 346.672 162.058 348.873 160.581 349.476C158.615 350.268 155.898 347.76 151.628 343.589C148.713 340.743 144.859 336.946 142.924 337.083C143.446 337.982 144.477 339.533 145.626 341.266C153.252 352.744 169.119 376.632 158.68 385.336C157.139 386.621 155.399 387.007 153.505 386.495C141.661 383.266 126.682 343.255 124.56 337.433L112.886 340.15C116.48 345.787 134.352 374.617 131.322 385.875C130.856 387.605 129.777 388.186 128.954 388.367C128.721 388.419 128.471 388.445 128.21 388.445C119.336 388.448 94.2927 359.608 88.8046 353.16C87.072 356.895 81.4584 369.795 81.3399 380.326C97.6521 385.223 119.959 397.09 119.962 405.72C119.962 406.576 119.592 407.339 118.863 407.985C112.705 413.453 77.8188 409.679 72.7985 409.104L69.0797 416.945C70.3058 416.919 72.3879 416.886 75.1328 416.886ZM227.512 530.032C227.499 530.032 227.486 530.032 227.473 530.032C227.204 530.019 226.957 529.863 226.834 529.619C226.357 528.714 178.951 438.724 148.432 427.829C117.769 416.883 68.3752 418.493 67.88 418.509C67.6122 418.535 67.3594 418.389 67.2124 418.165C67.0654 417.941 67.0456 417.659 67.1605 417.415L71.6493 407.949C71.7905 407.654 72.1037 407.478 72.4324 407.517C83.3792 408.825 112.878 411.253 117.845 406.839C118.243 406.485 118.429 406.132 118.429 405.72C118.427 398.554 97.5992 386.683 80.3569 381.63C80.0324 381.536 79.8088 381.241 79.8062 380.903C79.7047 368.059 87.6003 352.092 87.9368 351.417C88.0521 351.187 88.2753 351.031 88.5317 350.998C88.7887 350.969 89.0425 351.07 89.2083 351.264C97.9637 361.659 122.121 388.325 128.621 386.871C129.007 386.787 129.553 386.55 129.842 385.476C132.959 373.894 111.23 340.406 111.01 340.068C110.874 339.857 110.848 339.595 110.941 339.364C111.035 339.131 111.235 338.959 111.478 338.903L124.876 335.788C125.252 335.7 125.64 335.908 125.771 336.275C125.934 336.729 142.17 381.815 153.909 385.018C155.31 385.398 156.549 385.116 157.698 384.158C167.081 376.334 151.152 352.352 144.349 342.113C142.369 339.131 141.406 337.667 141.149 336.946C141.038 336.635 141.139 336.291 141.398 336.086C144.028 334.023 148.24 338.137 152.698 342.493C155.301 345.034 158.869 348.522 160.003 348.055C160.268 347.948 160.563 347.328 160.598 345.913C160.863 335.116 159.32 323.716 159.304 323.602C159.277 323.398 159.333 323.19 159.461 323.024C159.589 322.862 159.778 322.758 159.985 322.736L182.065 320.444C182.332 320.425 182.596 320.532 182.757 320.746C182.918 320.964 182.955 321.246 182.855 321.496C179.467 329.852 171.204 352.621 173.617 357.563C173.858 358.057 174.136 358.187 174.324 358.238C178.562 359.462 185.929 341.431 189.583 329.791C189.657 329.557 189.841 329.369 190.076 329.294C190.31 329.216 190.569 329.259 190.768 329.405L198.156 334.834C198.463 335.058 198.557 335.476 198.378 335.814C198.165 336.213 177.2 375.893 189.709 389.532C202.561 403.548 268.944 464.458 269.616 465.072C269.891 465.325 269.943 465.74 269.739 466.055L228.151 529.684C228.012 529.902 227.768 530.032 227.512 530.032Z" fill="black"/>
<path d="M138.342 320.808C138.433 319.701 138.721 318.591 139.225 317.527C141.185 313.393 145.748 311.332 150.025 312.37C150.217 310.118 150.806 307.863 151.831 305.701C156.43 296.001 168.02 291.87 177.718 296.469C184.726 299.792 188.826 306.762 188.828 314.035C194.132 309.982 201.46 308.96 207.908 312.02C216.345 316.018 220.332 325.604 217.553 334.259C218.942 336.83 219.132 340 217.785 342.843C215.541 347.575 209.884 349.593 205.151 347.347C204.716 347.143 204.304 346.906 203.915 346.646C200.08 347.481 195.951 347.101 192.13 345.29C185.651 342.217 181.799 335.853 181.615 329.142C175.988 333.688 168.037 334.895 161.064 331.589C158.83 330.527 156.896 329.096 155.291 327.402C153.65 329.525 151.205 330.813 148.611 331.04C148.52 332.147 148.232 333.257 147.728 334.321C145.483 339.053 139.827 341.071 135.094 338.825C130.361 336.583 128.343 330.927 130.588 326.192C132.084 323.037 135.097 321.09 138.342 320.808Z" fill="#448582"/>
<path d="M209.199 349.029C207.728 349.029 206.236 348.711 204.822 348.042C204.461 347.87 204.106 347.675 203.764 347.461C199.693 348.276 195.565 347.766 191.802 345.985C185.681 343.08 181.617 337.274 180.942 330.605C175.047 334.694 167.27 335.379 160.736 332.28C158.732 331.329 156.919 330.073 155.335 328.538C153.756 330.248 151.62 331.381 149.304 331.728C149.157 332.741 148.861 333.718 148.42 334.649C147.247 337.125 145.181 338.991 142.601 339.913C140.022 340.831 137.239 340.692 134.766 339.52C132.291 338.345 130.422 336.281 129.502 333.701C129.36 333.302 129.568 332.864 129.967 332.721C130.365 332.578 130.804 332.786 130.946 333.185C131.728 335.379 133.318 337.138 135.422 338.134C137.526 339.131 139.893 339.254 142.087 338.469C144.28 337.686 146.038 336.096 147.035 333.993C147.487 333.039 147.76 332.024 147.847 330.979C147.878 330.605 148.173 330.31 148.545 330.278C150.966 330.067 153.205 328.846 154.685 326.932C154.822 326.757 155.029 326.646 155.252 326.636C155.482 326.62 155.693 326.714 155.847 326.873C157.437 328.551 159.302 329.904 161.393 330.897C167.834 333.948 175.584 333.03 181.134 328.548C181.361 328.363 181.671 328.324 181.936 328.447C182.201 328.567 182.373 328.83 182.381 329.122C182.564 335.807 186.425 341.737 192.459 344.599C196.01 346.283 199.915 346.731 203.752 345.897C203.956 345.855 204.169 345.894 204.342 346.01C204.705 346.254 205.088 346.471 205.479 346.656C209.823 348.714 215.032 346.858 217.093 342.515C217.274 342.129 217.73 341.97 218.113 342.149C218.496 342.33 218.659 342.788 218.477 343.171C216.726 346.864 213.037 349.029 209.199 349.029Z" fill="black"/>
<path d="M65.7342 394.855C68.0637 391.733 72.3435 390.577 75.9983 392.31C80.1645 394.287 81.9403 399.265 79.9646 403.432C79.5521 404.301 79.0072 405.067 78.3679 405.716C80.2791 410.351 80.3021 415.744 77.985 420.628C73.6283 429.815 62.648 433.732 53.4604 429.377C44.2725 425.019 40.3561 414.04 44.7129 404.85C48.5267 396.808 57.4151 392.807 65.7342 394.855Z" fill="#448582"/>
<path d="M61.672 432.087C58.8678 432.087 56.0766 431.464 53.4678 430.228C48.2186 427.738 44.4204 423.069 43.0466 417.419C42.9467 417.01 43.1989 416.594 43.6103 416.494C44.0218 416.393 44.4359 416.646 44.5359 417.058C45.7999 422.257 49.2947 426.554 54.1246 428.842C58.383 430.864 63.1723 431.101 67.6128 429.52C72.0522 427.936 75.6094 424.717 77.6282 420.459C79.7568 415.971 79.8905 410.763 77.9956 406.167C77.8778 405.882 77.9417 405.557 78.1578 405.337C78.755 404.73 79.243 404.032 79.6085 403.263C81.0292 400.268 80.3568 396.733 77.9349 394.472C77.6256 394.183 77.6087 393.699 77.8976 393.388C78.1864 393.079 78.6719 393.063 78.9812 393.352C81.8925 396.071 82.7015 400.316 80.9929 403.922C80.6265 404.694 80.1576 405.405 79.5945 406.044C81.4608 410.922 81.2554 416.387 79.0133 421.115C76.8185 425.746 72.9525 429.241 68.1278 430.964C66.0219 431.714 63.8431 432.087 61.672 432.087Z" fill="black"/>
<path d="M74.4008 351.128C72.7545 347.39 72.6759 342.986 74.5631 339.007C77.573 332.66 84.5788 329.492 91.1469 331.086C91.4253 329.473 91.9196 327.87 92.6556 326.318C97.0126 317.131 107.993 313.214 117.18 317.572C126.368 321.928 130.285 332.909 125.928 342.097C121.571 351.284 110.591 355.201 101.403 350.843C101.34 350.813 101.279 350.781 101.216 350.748C101.114 350.998 101.006 351.245 100.889 351.492C98.741 356.022 94.5566 358.933 89.9491 359.647C93.2319 364.81 93.8748 371.495 91.0596 377.431C86.7028 386.618 75.7226 390.535 66.5347 386.177C57.3471 381.822 53.4307 370.84 57.7875 361.652C60.9311 355.022 67.5225 351.141 74.4008 351.128Z" fill="#448582"/>
<path d="M74.7295 388.056C71.9253 388.056 69.1338 387.436 66.5249 386.196C64.1867 385.09 62.1344 383.555 60.4258 381.637C60.1441 381.322 60.1724 380.838 60.4885 380.556C60.8042 380.274 61.2881 380.3 61.5701 380.618C63.1418 382.38 65.0295 383.792 67.1818 384.814C75.9738 388.981 86.5172 385.223 90.6864 376.431C93.2998 370.918 92.9016 364.547 89.621 359.387C89.4821 359.17 89.4626 358.894 89.5694 358.66C89.6758 358.424 89.8945 358.258 90.1499 358.219C94.68 357.515 98.5548 354.627 100.516 350.492C100.626 350.259 100.728 350.025 100.825 349.788C100.905 349.59 101.063 349.437 101.261 349.363C101.459 349.285 101.678 349.295 101.869 349.389L102.048 349.476C106.309 351.498 111.099 351.738 115.538 350.155C119.978 348.571 123.535 345.355 125.555 341.097C128.667 334.532 127.388 326.594 122.371 321.34C122.079 321.035 122.09 320.548 122.396 320.26C122.702 319.964 123.187 319.977 123.48 320.282C128.932 325.991 130.322 334.62 126.939 341.753C122.491 351.131 111.366 355.24 101.921 351.105C101.914 351.118 101.907 351.135 101.901 351.148C99.8824 355.402 96.0401 358.472 91.485 359.52C94.5174 364.946 94.752 371.43 92.0711 377.087C89.8757 381.715 86.01 385.213 81.185 386.933C79.0795 387.683 76.9006 388.056 74.7295 388.056Z" fill="black"/>
<path d="M52.9278 403.701C51.2517 407.235 52.7584 411.46 56.2931 413.135C59.8278 414.813 64.0518 413.307 65.728 409.77C67.4042 406.236 65.8974 402.014 62.363 400.336C58.8283 398.661 54.604 400.167 52.9278 403.701Z" fill="white"/>
<path d="M43.5615 386.346C42.5126 388.556 43.4553 391.2 45.6673 392.249C47.8792 393.297 50.5225 392.356 51.5713 390.142C52.6202 387.932 51.6775 385.288 49.4655 384.239C47.2536 383.191 44.6103 384.132 43.5615 386.346Z" fill="white"/>
<path d="M201.9 315.139C200.36 318.387 201.744 322.268 204.993 323.81C208.241 325.348 212.123 323.966 213.663 320.717C215.203 317.469 213.819 313.587 210.57 312.046C207.322 310.504 203.44 311.89 201.9 315.139Z" fill="white"/>
<path d="M195.39 334.074C194.422 336.116 195.292 338.556 197.334 339.526C199.376 340.494 201.816 339.624 202.784 337.583C203.752 335.538 202.882 333.101 200.84 332.131C198.799 331.164 196.359 332.033 195.39 334.074Z" fill="white"/>
<path d="M228.583 488.918C219.422 508.237 221.399 528.36 232.999 533.861C244.601 539.362 261.431 528.159 270.596 508.837C279.757 489.515 277.781 469.394 266.179 463.894C254.577 458.393 237.744 469.596 228.583 488.918Z" fill="white"/>
<path d="M259.76 463.254C255.752 463.254 251.351 464.767 246.892 467.733C239.905 472.383 233.649 480.022 229.277 489.245C220.31 508.152 222.128 527.857 233.327 533.17C238.685 535.707 245.419 534.591 252.286 530.019C259.273 525.368 265.53 517.729 269.901 508.509C278.868 489.602 277.05 469.897 265.848 464.585C263.972 463.696 261.924 463.254 259.76 463.254ZM239.419 536.035C237.03 536.035 234.762 535.545 232.672 534.552C220.708 528.88 218.563 508.259 227.892 488.587C232.38 479.12 238.828 471.26 246.042 466.457C253.376 461.577 260.642 460.421 266.507 463.202C278.472 468.875 280.614 489.495 271.287 509.165C266.795 518.634 260.35 526.494 253.136 531.294C248.418 534.435 243.725 536.035 239.419 536.035Z" fill="black"/>
<path d="M241.768 530.311C240.175 530.311 238.669 529.986 237.293 529.334C233.013 527.306 230.455 522.389 230.095 515.493C229.741 508.766 231.516 500.906 235.096 493.361C237.643 487.99 240.944 483.148 244.637 479.361C244.936 479.059 245.419 479.052 245.721 479.348C246.026 479.643 246.029 480.13 245.734 480.431C242.158 484.099 238.958 488.798 236.482 494.019C233.009 501.337 231.286 508.934 231.624 515.412C231.955 521.721 234.2 526.173 237.949 527.948C241.45 529.61 246 528.756 250.757 525.547C251.108 525.31 251.585 525.401 251.822 525.754C252.059 526.105 251.965 526.582 251.614 526.819C248.184 529.13 244.812 530.311 241.768 530.311Z" fill="black"/>
<path d="M267.061 476.07C266.851 476.07 266.64 475.982 266.487 475.813C265.676 474.895 264.731 474.178 263.683 473.681C261.941 472.854 259.951 472.643 257.764 473.052C257.348 473.126 256.949 472.857 256.871 472.438C256.794 472.023 257.066 471.624 257.482 471.546C259.993 471.075 262.297 471.329 264.339 472.296C265.578 472.883 266.685 473.724 267.636 474.794C267.915 475.112 267.886 475.596 267.571 475.878C267.425 476.008 267.243 476.07 267.061 476.07Z" fill="black"/>
<path d="M152.542 421.155C152.478 421.638 152.445 422.122 152.445 422.612C152.445 444.342 217.068 461.96 296.783 461.96C376.498 461.96 439.649 446.253 439.649 424.523C439.649 402.79 376.498 383.26 296.783 383.26C218.854 383.26 155.348 400.096 152.542 421.155Z" fill="#152E37"/>
<path d="M296.783 384.025C259.226 384.025 223.674 387.939 196.687 395.049C170.026 402.075 154.618 411.383 153.302 421.258C153.242 421.706 153.212 422.16 153.212 422.608C153.212 432.597 168.415 442.469 194.923 449.696C222.121 457.111 258.297 461.194 296.783 461.194C335.645 461.194 371.558 457.449 397.92 450.65C424.334 443.835 438.883 434.557 438.883 424.523C438.883 414.385 423.943 404.162 397.896 396.474C370.689 388.445 334.779 384.025 296.783 384.025ZM296.783 462.725C258.164 462.725 221.846 458.624 194.52 451.172C166.894 443.644 151.68 433.499 151.68 422.608C151.68 422.092 151.714 421.569 151.783 421.053C154.664 399.43 218.357 382.494 296.783 382.494C334.922 382.494 370.984 386.936 398.327 395.004C425.472 403.013 440.416 413.495 440.416 424.523C440.416 435.319 425.462 445.127 398.301 452.133C371.82 458.964 335.767 462.725 296.783 462.725Z" fill="black"/>
<path d="M156.082 436.57C156.082 457.836 219.315 475.075 297.319 475.075C375.321 475.075 437.109 459.705 437.109 438.439C437.109 417.173 375.321 398.066 297.319 398.066C219.315 398.066 156.082 415.304 156.082 436.57Z" fill="white"/>
<path d="M297.319 398.831C259.66 398.831 224.263 402.825 197.651 410.082C171.72 417.15 156.848 426.804 156.848 436.57C156.848 446.331 171.72 455.986 197.651 463.057C224.263 470.31 259.66 474.308 297.319 474.308C335.337 474.308 370.481 470.641 396.273 463.989C422.115 457.323 436.345 448.249 436.345 438.439C436.345 428.528 421.732 418.533 396.25 411.013C369.629 403.157 334.492 398.831 297.319 398.831ZM297.319 475.84C259.525 475.84 223.988 471.826 197.247 464.534C170.207 457.164 155.316 447.23 155.316 436.57C155.316 425.906 170.207 415.975 197.247 408.602C223.988 401.313 259.525 397.299 297.319 397.299C334.637 397.299 369.923 401.647 396.683 409.543C423.247 417.38 437.876 427.642 437.876 438.439C437.876 449.015 423.237 458.614 396.656 465.472C370.742 472.157 335.463 475.84 297.319 475.84Z" fill="black"/>
<path d="M152.445 422.612C152.445 444.342 216.358 459.938 296.074 459.938C367.108 459.938 425.707 447.36 437.659 429.154C438.076 428.521 439.061 428.904 438.962 429.654L433.63 469.408C422.723 515.35 368.755 543.039 311.605 547.118C289.477 548.699 293.397 549.332 269.649 547.118C215.684 542.091 170.687 510.168 160.66 468.593L151.372 425.513C151.372 424.046 152.445 422.209 152.445 422.612Z" fill="#152E37"/>
<path d="M152.408 426.673L161.411 468.429C171.262 509.278 215.803 541.331 269.72 546.354C288.967 548.149 289.914 548.071 301.519 547.127C304.186 546.913 307.415 546.65 311.553 546.354C363.715 542.629 421.465 517.339 432.887 469.231L438.175 429.762C425.861 447.991 367.534 460.702 296.076 460.702C257.016 460.702 220.828 456.961 194.178 450.165C170.261 444.067 155.721 435.834 152.408 426.673ZM290.04 549.321C285.591 549.321 280.52 548.902 269.578 547.883C215.018 542.798 169.924 510.264 159.917 468.77L150.624 425.673C150.613 425.618 150.607 425.566 150.607 425.511C150.607 424.43 151.392 421.785 152.42 421.785C152.623 421.785 152.831 421.896 152.975 422.038C153.119 422.181 153.213 422.405 153.213 422.606C153.213 432.621 167.896 441.88 194.557 448.679C221.086 455.445 257.139 459.171 296.076 459.171C367.299 459.171 425.255 446.654 437.025 428.73C437.406 428.143 438.108 427.919 438.768 428.162C439.423 428.406 439.818 429.061 439.725 429.752L434.395 469.51C429.187 491.451 413.962 510.481 390.352 524.618C368.783 537.537 340.834 545.799 311.659 547.883C307.528 548.178 304.305 548.438 301.641 548.655C296.537 549.071 293.472 549.321 290.04 549.321Z" fill="black"/>
<path d="M371.451 423.627C371.451 426.08 376.565 428.066 382.874 428.066C389.183 428.066 394.294 426.08 394.294 423.627C394.294 421.173 389.183 419.184 382.874 419.184C376.565 419.184 371.451 421.173 371.451 423.627Z" fill="black"/>
<path d="M313.076 443.932C313.076 446.382 318.19 448.372 324.496 448.372C330.805 448.372 335.919 446.382 335.919 443.932C335.919 441.479 330.805 439.49 324.496 439.49C318.19 439.49 313.076 441.479 313.076 443.932Z" fill="black"/>
<path d="M271.196 414.108C271.196 416.562 276.311 418.548 282.619 418.548C288.925 418.548 294.039 416.562 294.039 414.108C294.039 411.655 288.925 409.666 282.619 409.666C276.311 409.666 271.196 411.655 271.196 414.108Z" fill="black"/>
<path d="M238.202 440.758C238.202 443.212 243.313 445.201 249.622 445.201C255.93 445.201 261.045 443.212 261.045 440.758C261.045 438.305 255.93 436.316 249.622 436.316C243.313 436.316 238.202 438.305 238.202 440.758Z" fill="black"/>
<path d="M320.975 394.871C319.32 396.104 319.083 405.317 318.593 409.296C318.609 407.771 317.246 401.082 315.581 400.676C313.913 400.271 314.182 403.273 312.907 403.776C311.632 404.279 311.103 399.94 309.834 401.514C308.562 403.088 309.866 404.98 309.353 406.115C308.837 407.251 307.497 403.824 306.335 405.616C305.174 407.407 309.113 410.669 307.883 411.236C306.657 411.804 305.667 409.16 305.04 410.737C304.414 412.317 315.717 429.721 316.733 429.05C319.151 427.446 324.311 428.19 327.16 428.745C330.006 429.299 332.644 430.607 335.205 431.974C335.87 432.331 336.704 432.688 337.337 432.272C337.905 431.896 337.967 431.039 337.655 430.432C337.344 429.825 336.123 429.439 337.077 428.907C338.028 428.375 339.378 428.54 340.968 428.297C341.257 428.251 341.569 428.199 341.777 427.992C342.364 427.401 341.527 426.434 340.719 426.239C339.911 426.041 338.35 425.902 337.967 425.162C338.255 424.445 340.014 424.11 340.751 423.873C341.488 423.637 342.098 422.725 341.932 421.965C341.627 420.563 337.055 420.359 336.798 419.252C336.539 418.146 340.959 417.957 338.687 415.702C336.224 413.265 334.153 414.897 326.371 418.801C326.157 418.898 325.953 419.009 325.748 419.119C329.023 415.335 330.684 412.914 334.124 409.37C334.702 408.777 336.902 406.446 336.01 404.756C335.117 403.068 332.946 406.745 332.933 405.376C332.914 403.367 335.912 401.764 334.936 399.998C333.962 398.233 332.304 400.832 331.94 400.031C331.577 399.229 333.255 396.295 332.32 394.851C331.382 393.407 329.182 396.052 328.052 396.033C326.92 396.01 327.913 393.027 327.601 392.554C327.03 391.684 326.19 391.846 325.378 392.505C324.567 393.16 324.171 394.975 323.308 396.091C322.448 397.207 322.626 393.641 320.975 394.871Z" fill="black"/>
<path d="M188.125 428.07C187.879 428.07 187.638 427.953 187.49 427.735C187.252 427.385 187.344 426.908 187.694 426.671C212.025 410.182 233.532 404.34 251.617 409.306C259.059 411.347 263.346 414.433 268.308 418.006C268.885 418.425 269.473 418.847 270.073 419.275C270.42 419.522 270.498 419.999 270.255 420.343C270.008 420.687 269.531 420.771 269.187 420.524C268.58 420.093 267.993 419.668 267.412 419.252C262.57 415.764 258.387 412.752 251.212 410.782C233.577 405.943 212.496 411.714 188.554 427.94C188.422 428.027 188.273 428.07 188.125 428.07Z" fill="black"/>
<path d="M324.09 438.931C311.411 438.931 298.372 434.427 291.966 432.214C290.1 431.571 288.285 430.89 286.566 430.189C286.173 430.026 285.985 429.582 286.144 429.189C286.303 428.796 286.75 428.608 287.143 428.767C288.837 429.458 290.629 430.13 292.465 430.766C302.496 434.229 329.133 443.432 344.039 431.415C348.027 428.203 350.419 425.723 352.528 423.536C353.369 422.663 354.164 421.842 355.014 421.014C355.319 420.719 355.803 420.726 356.098 421.027C356.393 421.332 356.387 421.816 356.082 422.111C355.251 422.923 354.462 423.737 353.632 424.6C351.49 426.82 349.062 429.335 345.002 432.61C339.168 437.312 331.694 438.931 324.09 438.931Z" fill="black"/>
<path d="M416.18 431.211C415.989 431.211 415.801 431.14 415.651 431C396.06 412.34 374.326 412.804 365.568 415.657C365.165 415.79 364.733 415.569 364.6 415.166C364.471 414.764 364.691 414.332 365.094 414.199C374.151 411.249 396.595 410.73 416.709 429.887C417.014 430.182 417.027 430.666 416.735 430.971C416.586 431.13 416.381 431.211 416.18 431.211Z" fill="black"/>
<path d="M225.977 420.404L219.194 419.788C218.724 419.745 218.256 419.885 217.888 420.18L210.23 426.307C209.189 427.138 209.362 428.771 210.554 429.368L216.265 432.22C216.955 432.567 217.788 432.441 218.345 431.905L227.074 423.542C228.206 422.459 227.538 420.544 225.977 420.404Z" fill="black"/>
<path d="M294.565 446.178L275.613 435.229C275.522 435.177 275.424 435.141 275.321 435.125L272.293 434.622C271.426 434.476 270.923 435.563 271.592 436.131L282.626 445.467C282.739 445.561 282.876 445.626 283.022 445.655L293.968 447.775C294.925 447.96 295.405 446.665 294.565 446.178Z" fill="black"/>
<path d="M394.781 436.802L379.042 434.106L367.012 439.337L377.474 446.136L394.969 438.308C395.683 437.987 395.553 436.936 394.781 436.802Z" fill="black"/>
<path d="M217.484 521.766C217.484 521.766 203.533 568.306 143.242 569.065C77.8726 569.89 44.4035 497.524 57.6629 444.377C64.3799 417.454 77.7795 412.911 77.7795 412.911L217.484 521.766Z" fill="#448582"/>
<path d="M77.6611 413.79C75.5014 414.774 64.306 420.917 58.4065 444.562C50.7337 475.32 58.7206 511.55 78.7538 536.866C90.1472 551.262 110.349 568.306 142.106 568.306C142.481 568.306 142.855 568.306 143.232 568.299C174.108 567.91 192.457 555.198 202.414 544.606C211.923 534.487 215.787 524.359 216.587 522.039L77.6611 413.79ZM142.102 569.841C109.732 569.841 89.1567 552.479 77.5524 537.817C57.2346 512.144 49.1358 475.392 56.9195 444.192C63.6599 417.172 76.9702 412.376 77.5332 412.184C77.777 412.103 78.047 412.148 78.2508 412.304L217.955 521.159C218.204 521.354 218.308 521.682 218.218 521.983C218.073 522.467 214.552 533.929 203.53 545.654C193.371 556.467 174.665 569.435 143.252 569.831C142.868 569.838 142.482 569.841 142.102 569.841Z" fill="black"/>
<path d="M207.19 535.188C207.19 535.188 165.752 575.877 107.869 514.941C49.9858 454.002 65.8287 409.903 84.8906 411.159C103.952 412.415 135.403 442.92 177.119 462.187C218.835 481.45 230.481 514.068 207.19 535.188Z" fill="white"/>
<path d="M84.1019 411.898C78.9222 411.898 74.1679 415.501 71.2728 421.676C63.5076 438.24 68.578 472.464 108.425 514.412C129.08 536.159 149.878 547.364 170.24 547.718C192.657 548.085 206.516 534.779 206.653 534.643C206.661 534.637 206.668 534.63 206.676 534.624C215.652 526.481 219.532 516.531 217.895 505.845C215.383 489.443 200.403 473.782 176.798 462.881C157.505 453.973 140.628 442.813 125.737 432.967C108.513 421.579 94.9079 412.586 84.8405 411.924C84.5936 411.908 84.3469 411.898 84.1019 411.898ZM171.202 549.26C170.873 549.26 170.545 549.256 170.213 549.25C149.425 548.89 128.262 537.525 107.313 515.467C66.9349 472.961 61.9149 438.026 69.8848 421.027C73.1956 413.966 78.8128 409.99 84.9411 410.393C95.4141 411.084 109.169 420.177 126.582 431.691C141.428 441.505 158.254 452.629 177.44 461.489C201.521 472.61 216.818 488.694 219.41 505.614C221.127 516.827 217.083 527.247 207.714 535.75C207.205 536.236 193.382 549.26 171.202 549.26Z" fill="black"/>
<path d="M177.119 508.117C177.119 508.117 165.773 522.85 135.938 499.559C106.105 476.268 122.274 453.519 148.25 462.596C174.225 471.672 184.361 495.048 177.119 508.117Z" fill="black"/>
<path d="M172.26 491.475C171.952 491.475 171.661 491.287 171.544 490.982C167.81 481.188 158.324 472.802 146.167 468.554C142.958 467.431 139.893 466.863 137.058 466.863C136.634 466.863 136.291 466.519 136.291 466.097C136.291 465.672 136.634 465.331 137.058 465.331C140.066 465.331 143.3 465.928 146.673 467.106C159.25 471.504 169.084 480.224 172.977 490.433C173.127 490.829 172.929 491.271 172.534 491.423C172.444 491.459 172.351 491.475 172.26 491.475Z" fill="white"/>
<path d="M158.318 206.98L115.735 212.854C110.487 213.579 106.142 217.298 104.607 222.368L96.8114 248.151L79.5295 224.943C76.5755 220.972 71.6994 218.928 66.8029 219.606L27.6395 225.007C20.22 226.034 13.3756 220.845 12.3531 213.416L0.894204 130.224C-0.128663 122.798 5.05713 115.946 12.4766 114.922L143.155 96.8952C150.575 95.8716 157.419 101.06 158.442 108.486L169.901 191.682C170.924 199.107 165.738 205.956 158.318 206.98Z" fill="white"/>
<path d="M68.6582 218.71C73.144 218.71 77.4194 220.821 80.1452 224.482L96.519 246.471L103.875 222.147C105.49 216.8 110.105 212.856 115.632 212.093L158.215 206.22C165.205 205.256 170.107 198.78 169.143 191.783L157.684 108.588C157.217 105.2 155.46 102.195 152.736 100.132C150.012 98.0649 146.646 97.186 143.261 97.6515L12.582 115.679C5.59234 116.643 0.689895 123.119 1.654 130.116L13.1126 213.31C13.5796 216.695 15.3362 219.701 18.0609 221.771C20.7849 223.834 24.1497 224.713 27.5358 224.247L66.6988 218.844C67.3534 218.755 68.0081 218.71 68.6582 218.71ZM96.8124 248.914C96.573 248.914 96.3439 248.802 96.1976 248.609L78.9156 225.398C76.129 221.656 71.5282 219.727 66.9084 220.363L27.7451 225.763C23.952 226.288 20.1857 225.305 17.1348 222.989C14.0846 220.676 12.1169 217.314 11.5944 213.519L0.135413 130.325C-0.943757 122.493 4.54594 115.243 12.3727 114.163L143.051 96.1322C146.844 95.6071 150.611 96.5939 153.662 98.9102C156.712 101.223 158.68 104.585 159.202 108.38L170.662 191.574C171.741 199.406 166.251 206.656 158.424 207.736L115.842 213.612C110.906 214.294 106.784 217.816 105.341 222.59L97.5456 248.37C97.4618 248.65 97.2295 248.855 96.9442 248.907C96.9003 248.914 96.856 248.914 96.8124 248.914Z" fill="black"/>
<path d="M104.36 141.683C101.033 138.886 96.8026 137.655 92.446 138.213C89.1894 138.633 86.3398 140.047 83.9743 142.414C82.7814 143.61 81.7416 145.02 80.871 146.622C79.6253 145.294 78.2636 144.192 76.8069 143.336C73.9215 141.641 70.8071 140.993 67.5506 141.412C63.1939 141.97 59.4102 144.234 56.8964 147.776C54.4128 151.28 53.372 155.765 53.9667 160.402C54.5791 165.178 56.9172 169.32 61.3255 173.441C65.2693 177.125 70.7139 180.681 77.0187 184.798C79.172 186.205 81.6123 187.8 84.1528 189.505C84.8238 189.955 85.6355 190.146 86.4386 190.046C87.2413 189.942 87.9788 189.55 88.5136 188.943C90.5411 186.652 92.5018 184.493 94.2313 182.587C99.2925 177.01 103.663 172.196 106.549 167.632C109.776 162.533 110.993 157.934 110.381 153.158C109.786 148.521 107.648 144.445 104.36 141.683Z" fill="#152E37"/>
<path d="M346.16 529.707C346.16 529.707 360.941 543.584 387.985 548.494C389.463 548.763 390.572 542.241 392.109 542.448C394.09 542.714 398.473 550.156 400.547 550.308C417.985 551.6 438.73 548.562 461.463 536.302C461.463 536.302 455.017 531.074 443.874 525.868C442.585 525.268 436.601 528.87 435.191 528.276C433.851 527.715 437.086 522.951 435.636 522.409C414.484 514.497 382.248 509.688 346.16 529.707Z" fill="#448582"/>
<path d="M320.334 530.067C320.334 530.067 341.8 580.329 405.969 589.958C407.557 590.198 409.343 583.308 410.981 583.493C412.619 583.678 418.317 592.557 420.005 592.687C428.068 593.307 436.684 593.274 445.869 592.431C445.869 592.431 407.973 520.974 320.334 530.067Z" fill="white"/>
<path d="M410.907 582.721C410.957 582.721 411.014 582.724 411.064 582.731C412.077 582.847 413.342 584.279 415.986 587.524C417.358 589.208 419.431 591.753 420.088 591.924C427.982 592.531 436.235 592.483 444.618 591.775C442.273 587.761 432.769 572.576 415.432 558.391C397.058 543.363 365.889 526.429 321.483 530.722C323.016 533.903 328.625 544.554 339.686 555.915C351.806 568.367 373.156 584.246 406.032 589.192C406.458 588.978 407.273 587.378 407.763 586.414C408.77 584.438 409.642 582.721 410.907 582.721ZM431.24 593.878C427.419 593.878 423.644 593.735 419.948 593.45C418.871 593.365 417.552 591.876 414.795 588.491C413.51 586.914 411.584 584.548 410.913 584.266C410.464 584.493 409.602 586.187 409.129 587.108C408.092 589.153 407.193 590.912 405.854 590.717C372.498 585.71 350.837 569.584 338.538 556.938C325.203 543.223 319.681 530.495 319.628 530.369C319.534 530.145 319.547 529.888 319.671 529.681C319.795 529.47 320.013 529.33 320.252 529.304C365.785 524.586 397.696 541.893 416.452 557.246C436.765 573.881 446.45 591.892 446.547 592.074C446.668 592.301 446.665 592.57 446.544 592.797C446.42 593.021 446.195 593.171 445.94 593.196C440.985 593.651 436.074 593.878 431.24 593.878Z" fill="black"/>
<path d="M365.412 552.025C365.311 552.025 365.207 552.002 365.107 551.96C356.698 548.325 347.115 544.025 336.63 539.183C336.244 539.005 336.078 538.547 336.253 538.164C336.432 537.781 336.889 537.612 337.272 537.791C347.745 542.63 357.318 546.923 365.717 550.554C366.103 550.72 366.281 551.171 366.116 551.56C365.989 551.849 365.707 552.025 365.412 552.025Z" fill="black"/>
<path d="M422.622 580.576C422.44 580.576 422.255 580.511 422.109 580.378C411.306 570.604 382.667 559.235 382.378 559.125C381.985 558.969 381.791 558.525 381.946 558.132C382.099 557.739 382.54 557.541 382.939 557.697C383.228 557.811 412.13 569.286 423.138 579.242C423.453 579.528 423.476 580.011 423.193 580.326C423.041 580.492 422.833 580.576 422.622 580.576Z" fill="black"/>
<path d="M451.281 503.079C450.976 503.079 450.687 502.898 450.565 502.596C450.41 502.203 450.6 501.758 450.992 501.603C488.914 486.502 520.957 462.254 543.657 431.479C543.911 431.142 544.386 431.067 544.73 431.317C545.071 431.57 545.142 432.051 544.892 432.391C522.018 463.396 489.749 487.82 451.562 503.024C451.467 503.063 451.372 503.079 451.281 503.079Z" fill="black"/>
<path d="M568.138 389.951C568.045 389.951 567.948 389.935 567.855 389.895C567.463 389.737 567.269 389.292 567.429 388.899C583.326 349.444 585.789 305.944 574.544 263.108C574.439 262.699 574.679 262.281 575.089 262.172C575.498 262.066 575.919 262.311 576.025 262.72C587.354 305.877 584.874 349.707 568.85 389.471C568.728 389.772 568.441 389.951 568.138 389.951Z" fill="black"/>
<path d="M524.137 474.408C523.927 474.408 523.717 474.323 523.568 474.154C523.281 473.84 523.307 473.356 523.623 473.071C547.178 451.846 565.022 426.433 576.664 397.544C592.212 358.961 595.462 316.247 586.061 274.027C585.967 273.612 586.228 273.202 586.643 273.112C587.054 273.022 587.464 273.278 587.558 273.693C597.024 316.221 593.747 359.243 578.089 398.115C566.356 427.225 548.379 452.827 524.65 474.21C524.5 474.343 524.316 474.408 524.137 474.408Z" fill="black"/>
<path d="M438.574 509.367C439.273 510.224 440.261 510.759 441.359 510.869C442.462 510.986 443.537 510.662 444.394 509.964C445.247 509.266 445.782 508.276 445.892 507.176C446.007 506.079 445.684 505.002 444.985 504.145C444.29 503.289 443.298 502.753 442.199 502.643C441.097 502.532 440.025 502.853 439.169 503.551C438.312 504.249 437.777 505.239 437.666 506.336C437.556 507.436 437.875 508.513 438.574 509.367ZM441.79 512.424C441.595 512.424 441.4 512.414 441.201 512.395C439.696 512.242 438.338 511.508 437.384 510.337C436.43 509.162 435.986 507.686 436.141 506.18C436.295 504.674 437.025 503.317 438.201 502.363C439.37 501.406 440.845 500.962 442.354 501.117C443.859 501.273 445.217 502.003 446.175 503.175C447.132 504.35 447.573 505.826 447.418 507.332C447.263 508.838 446.531 510.194 445.358 511.152C444.337 511.982 443.087 512.424 441.79 512.424Z" fill="black"/>
<path d="M602.807 331.991L601.591 339.004C602.982 338.615 605.449 337.894 608.011 337.018L602.807 331.991ZM600.628 340.828C600.441 340.828 600.253 340.76 600.11 340.626C599.918 340.451 599.831 340.188 599.874 339.932L601.544 330.303C601.596 330.024 601.792 329.794 602.062 329.706C602.332 329.622 602.629 329.687 602.834 329.885L609.968 336.778C610.16 336.963 610.243 337.232 610.186 337.491C610.134 337.751 609.946 337.962 609.698 338.053C605.361 339.604 600.868 340.792 600.82 340.805C600.759 340.821 600.694 340.828 600.628 340.828Z" fill="black"/>
<path d="M610.231 323.759C610.144 323.759 610.057 323.743 609.965 323.714C609.79 323.645 605.562 322.026 604.733 317.983C604.471 316.691 605.034 315.208 605.632 313.641C606.243 312.034 606.876 310.376 606.636 308.935C606.448 307.802 605.313 306.65 604.109 305.43C602.643 303.944 601.129 302.406 600.902 300.481C600.727 298.988 601.844 297.444 602.927 295.951C603.808 294.728 604.724 293.465 604.663 292.572C604.593 291.42 603.385 290.259 602.32 289.236C601.508 288.455 600.806 287.78 600.518 287.056C600.361 286.663 600.553 286.218 600.946 286.059C601.343 285.904 601.788 286.095 601.94 286.488C602.106 286.903 602.756 287.526 603.385 288.13C604.585 289.288 606.086 290.726 606.195 292.475C606.287 293.916 605.209 295.406 604.166 296.846C603.258 298.103 602.32 299.404 602.425 300.306C602.586 301.705 603.917 303.051 605.204 304.356C606.518 305.69 607.879 307.072 608.15 308.682C608.46 310.535 607.718 312.476 607.068 314.186C606.548 315.542 606.06 316.821 606.234 317.678C606.889 320.878 610.467 322.263 610.502 322.276C610.899 322.425 611.099 322.867 610.951 323.263C610.838 323.571 610.545 323.759 610.231 323.759Z" fill="black"/>
<path d="M137.057 81.146C136.885 81.146 136.712 81.0896 136.569 80.9681C136.243 80.6992 136.197 80.2177 136.466 79.8924C136.66 79.6581 156.162 56.3467 194.175 35.1739C216.49 22.746 240.736 13.4631 266.237 7.58539C298.105 0.241469 332.037 -1.77562 367.085 1.59052C367.506 1.62956 367.814 2.00262 367.775 2.42339C367.736 2.84416 367.367 3.16513 366.938 3.11308C287.947 -4.46942 229.793 17.0895 194.92 36.5142C157.157 57.5483 137.839 80.6385 137.648 80.8684C137.497 81.0505 137.277 81.146 137.057 81.146Z" fill="black"/>
<path d="M173.152 63.6112C172.918 63.6112 172.686 63.5048 172.536 63.3006C172.284 62.9602 172.355 62.4836 172.695 62.2283C205.671 37.7573 258.737 9.01415 324.297 11.1417C324.719 11.1545 325.05 11.5076 325.037 11.9289C325.024 12.3544 324.689 12.7118 324.248 12.6693C259.139 10.5885 206.389 39.1317 173.608 63.458C173.471 63.5602 173.311 63.6112 173.152 63.6112Z" fill="black"/>
<path d="M416.246 9.78754C415.931 9.78754 415.62 9.74873 415.318 9.66677C413.925 9.28721 412.86 7.78619 411.829 6.33694C410.936 5.07316 410.009 3.76191 409.12 3.57212C407.74 3.27451 406.036 4.09837 404.389 4.892C402.702 5.71152 400.951 6.55689 399.342 6.28947C397.492 5.98323 395.896 4.65475 394.485 3.48586C393.368 2.55851 392.316 1.68293 391.449 1.5751C388.201 1.16534 385.742 4.10265 385.717 4.13285C385.449 4.45634 384.966 4.5038 384.638 4.23638C384.31 3.96896 384.263 3.48586 384.53 3.16237C384.651 3.0114 387.55 -0.465056 391.643 0.0525333C392.95 0.22075 394.171 1.23435 395.46 2.30835C396.784 3.40392 398.147 4.53831 399.592 4.77554C400.727 4.95669 402.184 4.25794 403.724 3.51606C405.605 2.60597 407.55 1.6657 409.444 2.07546C410.915 2.39033 412.014 3.94738 413.08 5.44839C413.955 6.68197 414.857 7.95438 415.715 8.1873C416.832 8.48922 418.32 7.72147 419.627 7.04429C420.632 6.5267 421.499 6.08244 422.276 6.03931C422.69 6.00912 423.061 6.34557 423.078 6.76826C423.104 7.19096 422.776 7.54895 422.353 7.57051C421.909 7.59639 421.111 8.00617 420.335 8.4073C419.118 9.03272 417.66 9.78754 416.246 9.78754Z" fill="black"/>
<path d="M166.361 96.7946C161.624 96.7946 157.77 92.9382 157.77 88.2027C157.77 83.4635 161.624 79.6109 166.361 79.6109C171.099 79.6109 174.952 83.4635 174.952 88.2027C174.952 88.627 174.61 88.9671 174.186 88.9671C173.763 88.9671 173.42 88.627 173.42 88.2027C173.42 84.3082 170.254 81.1435 166.361 81.1435C162.469 81.1435 159.302 84.3082 159.302 88.2027C159.302 92.0935 162.469 95.262 166.361 95.262C166.784 95.262 167.128 95.6021 167.128 96.0264C167.128 96.4506 166.784 96.7946 166.361 96.7946Z" fill="black"/>
</svg>
